<?xml version="1.0" encoding="UTF-8"?>
<svg version="1.1" xmlns="http://www.w3.org/2000/svg" width="840" height="859">
<path d="M0 0 C0.66 0 1.32 0 2 0 C2 0.66 2 1.32 2 2 C3.32 2 4.64 2 6 2 C6 2.66 6 3.32 6 4 C7.32 4 8.64 4 10 4 C10 4.66 10 5.32 10 6 C10.66 6 11.32 6 12 6 C12 6.66 12 7.32 12 8 C13.32 8 14.64 8 16 8 C16 8.66 16 9.32 16 10 C16.99 10 17.98 10 19 10 C19 10.66 19 11.32 19 12 C19.66 12 20.32 12 21 12 C21 12.66 21 13.32 21 14 C22.32 14 23.64 14 25 14 C25 14.66 25 15.32 25 16 C26.32 16 27.64 16 29 16 C29 16.66 29 17.32 29 18 C29.66 18 30.32 18 31 18 C31 18.66 31 19.32 31 20 C32.32 20 33.64 20 35 20 C35 20.66 35 21.32 35 22 C36.98 22.66 38.96 23.32 41 24 C41 24.66 41 25.32 41 26 C42.32 26 43.64 26 45 26 C45 26.66 45 27.32 45 28 C45.66 28 46.32 28 47 28 C47 28.66 47 29.32 47 30 C47.886875 30.12375 48.77375 30.2475 49.6875 30.375 C52.70387502 30.94412736 55.20326054 31.76614436 58 33 C58 33.66 58 34.32 58 35 C58.66 35 59.32 35 60 35 C60 35.66 60 36.32 60 37 C61.32 37 62.64 37 64 37 C64 37.66 64 38.32 64 39 C64.66 39 65.32 39 66 39 C66 39.66 66 40.32 66 41 C67.32 41 68.64 41 70 41 C70 41.66 70 42.32 70 43 C71.32 43 72.64 43 74 43 C74 43.66 74 44.32 74 45 C74.66 45 75.32 45 76 45 C76 45.66 76 46.32 76 47 C77.32 47 78.64 47 80 47 C80 47.66 80 48.32 80 49 C81.32 49 82.64 49 84 49 C84 49.66 84 50.32 84 51 C84.66 51 85.32 51 86 51 C86 51.66 86 52.32 86 53 C87.32 53 88.64 53 90 53 C90 53.66 90 54.32 90 55 C90.66 55 91.32 55 92 55 C92 55.66 92 56.32 92 57 C92.99 57 93.98 57 95 57 C95 57.66 95 58.32 95 59 C96.32 59 97.64 59 99 59 C99 59.66 99 60.32 99 61 C100.98 61.33 102.96 61.66 105 62 C105 62.66 105 63.32 105 64 C106.32 64 107.64 64 109 64 C109 64.66 109 65.32 109 66 C110.32 66 111.64 66 113 66 C113 66.66 113 67.32 113 68 C113.66 68 114.32 68 115 68 C115 68.66 115 69.32 115 70 C115.66 70 116.32 70 117 70 C117 70.66 117 71.32 117 72 C118.32 72 119.64 72 121 72 C121 72.66 121 73.32 121 74 C122.32 74 123.64 74 125 74 C125 74.66 125 75.32 125 76 C125.99 76 126.98 76 128 76 C128 76.66 128 77.32 128 78 C128.99 78 129.98 78 131 78 C131 78.66 131 79.32 131 80 C131.99 80 132.98 80 134 80 C134 80.66 134 81.32 134 82 C135.32 82 136.64 82 138 82 C138 82.66 138 83.32 138 84 C138.66 84 139.32 84 140 84 C140 84.66 140 85.32 140 86 C141.32 86 142.64 86 144 86 C144 86.66 144 87.32 144 88 C144.66 88 145.32 88 146 88 C146 88.66 146 89.32 146 90 C147.32 90 148.64 90 150 90 C150 90.66 150 91.32 150 92 C151.32 92 152.64 92 154 92 C154 92.66 154 93.32 154 94 C154.66 94 155.32 94 156 94 C156 94.66 156 95.32 156 96 C157.32 96 158.64 96 160 96 C160 96.66 160 97.32 160 98 C161.32 98 162.64 98 164 98 C164 98.66 164 99.32 164 100 C166.97 100.99 169.94 101.98 173 103 C173 103.66 173 104.32 173 105 C173.66 105 174.32 105 175 105 C175 105.66 175 106.32 175 107 C176.32 107 177.64 107 179 107 C179 107.66 179 108.32 179 109 C180.32 109 181.64 109 183 109 C183 109.66 183 110.32 183 111 C183.66 111 184.32 111 185 111 C185 111.66 185 112.32 185 113 C186.32 113 187.64 113 189 113 C189 113.66 189 114.32 189 115 C190.32 115 191.64 115 193 115 C193 115.66 193 116.32 193 117 C193.66 117 194.32 117 195 117 C195 117.66 195 118.32 195 119 C196.32 119 197.64 119 199 119 C199 119.66 199 120.32 199 121 C199.66 121 200.32 121 201 121 C201 121.66 201 122.32 201 123 C202.32 123 203.64 123 205 123 C205 123.66 205 124.32 205 125 C205.99 125 206.98 125 208 125 C208 125.66 208 126.32 208 127 C208.66 127 209.32 127 210 127 C210 127.66 210 128.32 210 129 C211.32 129 212.64 129 214 129 C214 129.66 214 130.32 214 131 C215.32 131 216.64 131 218 131 C218 131.66 218 132.32 218 133 C219.32 133 220.64 133 222 133 C222 133.66 222 134.32 222 135 C222.66 135 223.32 135 224 135 C224 135.66 224 136.32 224 137 C225.32 137 226.64 137 228 137 C228 137.66 228 138.32 228 139 C228.66 139 229.32 139 230 139 C230 139.66 230 140.32 230 141 C231.32 141 232.64 141 234 141 C234 141.66 234 142.32 234 143 C237.3 143.99 240.6 144.98 244 146 C244 146.99 244 147.98 244 149 C244.99 149.33 245.98 149.66 247 150 C247 242.73 247 335.46 247 431 C83.65 431 -79.7 431 -248 431 C-248 337.61 -248 244.22 -248 148 C-246.68 148 -245.36 148 -244 148 C-244 147.34 -244 146.68 -244 146 C-241.03 145.01 -241.03 145.01 -238 144 C-238 143.34 -238 142.68 -238 142 C-236.68 142 -235.36 142 -234 142 C-234 141.34 -234 140.68 -234 140 C-233.34 140 -232.68 140 -232 140 C-232 139.34 -232 138.68 -232 138 C-229.36 137.67 -226.72 137.34 -224 137 C-224 136.34 -224 135.68 -224 135 C-223.34 135 -222.68 135 -222 135 C-222 134.34 -222 133.68 -222 133 C-220.68 133 -219.36 133 -218 133 C-218 132.34 -218 131.68 -218 131 C-216.68 131 -215.36 131 -214 131 C-214 130.34 -214 129.68 -214 129 C-213.34 129 -212.68 129 -212 129 C-212 128.34 -212 127.68 -212 127 C-211.01 127 -210.02 127 -209 127 C-209 126.34 -209 125.68 -209 125 C-207.68 125 -206.36 125 -205 125 C-205 124.34 -205 123.68 -205 123 C-204.34 123 -203.68 123 -203 123 C-203 122.34 -203 121.68 -203 121 C-201.68 121 -200.36 121 -199 121 C-199 120.34 -199 119.68 -199 119 C-197.68 119 -196.36 119 -195 119 C-195 118.34 -195 117.68 -195 117 C-194.34 117 -193.68 117 -193 117 C-193 116.34 -193 115.68 -193 115 C-191.68 115 -190.36 115 -189 115 C-189 114.34 -189 113.68 -189 113 C-187.68 113 -186.36 113 -185 113 C-185 112.34 -185 111.68 -185 111 C-184.34 111 -183.68 111 -183 111 C-183 110.34 -183 109.68 -183 109 C-181.68 109 -180.36 109 -179 109 C-179 108.34 -179 107.68 -179 107 C-178.01 107 -177.02 107 -176 107 C-176 106.34 -176 105.68 -176 105 C-174.02 104.34 -172.04 103.68 -170 103 C-170 102.34 -170 101.68 -170 101 C-168.02 100.67 -166.04 100.34 -164 100 C-164 99.34 -164 98.68 -164 98 C-160.91190305 96.23537317 -159.76687864 96 -156 96 C-156 95.34 -156 94.68 -156 94 C-155.34 94 -154.68 94 -154 94 C-154 93.34 -154 92.68 -154 92 C-152.68 92 -151.36 92 -150 92 C-150 91.34 -150 90.68 -150 90 C-148.68 90 -147.36 90 -146 90 C-146 89.34 -146 88.68 -146 88 C-145.34 88 -144.68 88 -144 88 C-144 87.34 -144 86.68 -144 86 C-142.68 86 -141.36 86 -140 86 C-140 85.34 -140 84.68 -140 84 C-138.68 84 -137.36 84 -136 84 C-135.505 82.02 -135.505 82.02 -135 80 C-133.68 80 -132.36 80 -131 80 C-131 79.34 -131 78.68 -131 78 C-129.68 78 -128.36 78 -127 78 C-127 77.34 -127 76.68 -127 76 C-126.34 76 -125.68 76 -125 76 C-125 75.34 -125 74.68 -125 74 C-123.68 74 -122.36 74 -121 74 C-121 73.34 -121 72.68 -121 72 C-119.68 72 -118.36 72 -117 72 C-117 71.34 -117 70.68 -117 70 C-116.34 70 -115.68 70 -115 70 C-115 69.34 -115 68.68 -115 68 C-113.68 68 -112.36 68 -111 68 C-111 67.34 -111 66.68 -111 66 C-109.02 65.34 -107.04 64.68 -105 64 C-105 63.34 -105 62.68 -105 62 C-103.39967863 61.15930585 -101.79458829 60.32768495 -100.1875 59.5 C-99.29417969 59.0359375 -98.40085937 58.571875 -97.48046875 58.09375 C-95 57 -95 57 -92 57 C-92 56.34 -92 55.68 -92 55 C-90.68 55 -89.36 55 -88 55 C-88 54.34 -88 53.68 -88 53 C-87.34 53 -86.68 53 -86 53 C-86 52.34 -86 51.68 -86 51 C-84.68 51 -83.36 51 -82 51 C-82 50.34 -82 49.68 -82 49 C-80.68 49 -79.36 49 -78 49 C-78 48.34 -78 47.68 -78 47 C-77.34 47 -76.68 47 -76 47 C-76 46.34 -76 45.68 -76 45 C-74.68 45 -73.36 45 -72 45 C-72 44.34 -72 43.68 -72 43 C-70.68 43 -69.36 43 -68 43 C-68 42.34 -68 41.68 -68 41 C-67.34 41 -66.68 41 -66 41 C-66 40.34 -66 39.68 -66 39 C-64.68 39 -63.36 39 -62 39 C-62 38.34 -62 37.68 -62 37 C-61.01 37 -60.02 37 -59 37 C-59 36.34 -59 35.68 -59 35 C-58.34 35 -57.68 35 -57 35 C-57 34.34 -57 33.68 -57 33 C-55.68 33 -54.36 33 -53 33 C-53 32.34 -53 31.68 -53 31 C-50.03 30.505 -50.03 30.505 -47 30 C-47 29.01 -47 28.02 -47 27 C-45.68 27 -44.36 27 -43 27 C-43 26.34 -43 25.68 -43 25 C-41.68 25 -40.36 25 -39 25 C-39 24.34 -39 23.68 -39 23 C-37.02 22.34 -35.04 21.68 -33 21 C-33 20.34 -33 19.68 -33 19 C-30.29120665 17.64560332 -27.99066732 17.93498549 -25 18 C-25 17.34 -25 16.68 -25 16 C-24.34 16 -23.68 16 -23 16 C-23 15.34 -23 14.68 -23 14 C-22.01 14 -21.02 14 -20 14 C-20 13.34 -20 12.68 -20 12 C-19.34 12 -18.68 12 -18 12 C-18 11.34 -18 10.68 -18 10 C-16.68 10 -15.36 10 -14 10 C-14 9.34 -14 8.68 -14 8 C-12.68 8 -11.36 8 -10 8 C-10 7.34 -10 6.68 -10 6 C-9.34 6 -8.68 6 -8 6 C-8 5.34 -8 4.68 -8 4 C-6.68 4 -5.36 4 -4 4 C-4 3.34 -4 2.68 -4 2 C-2.68 2 -1.36 2 0 2 C0 1.34 0 0.68 0 0 Z " fill="#5E1F20" transform="translate(421,423)"/>
<path d="M0 0 C0.66 0 1.32 0 2 0 C2 0.66 2 1.32 2 2 C2.66 2 3.32 2 4 2 C4 2.66 4 3.32 4 4 C4.66 4 5.32 4 6 4 C6 4.66 6 5.32 6 6 C6.66 6 7.32 6 8 6 C8 6.66 8 7.32 8 8 C8.66 8 9.32 8 10 8 C10 8.99 10 9.98 10 11 C10.66 11 11.32 11 12 11 C12 11.66 12 12.32 12 13 C12.66 13 13.32 13 14 13 C14 13.66 14 14.32 14 15 C14.66 15 15.32 15 16 15 C16 15.66 16 16.32 16 17 C16.66 17 17.32 17 18 17 C18.33 18.32 18.66 19.64 19 21 C19.66 21 20.32 21 21 21 C21 22.32 21 23.64 21 25 C21.66 25 22.32 25 23 25 C23 25.66 23 26.32 23 27 C23.66 27 24.32 27 25 27 C25 27.66 25 28.32 25 29 C25.66 29 26.32 29 27 29 C27 29.66 27 30.32 27 31 C27.66 31 28.32 31 29 31 C29 31.66 29 32.32 29 33 C29.66 33 30.32 33 31 33 C31 33.66 31 34.32 31 35 C31.66 35 32.32 35 33 35 C33 35.66 33 36.32 33 37 C33.66 37 34.32 37 35 37 C35 37.99 35 38.98 35 40 C35.66 40 36.32 40 37 40 C37 40.99 37 41.98 37 43 C37.66 43 38.32 43 39 43 C39 43.66 39 44.32 39 45 C39.66 45 40.32 45 41 45 C41 45.66 41 46.32 41 47 C42.32 47.33 43.64 47.66 45 48 C45 49.32 45 50.64 45 52 C45.66 52 46.32 52 47 52 C47 52.66 47 53.32 47 54 C47.66 54 48.32 54 49 54 C49 54.66 49 55.32 49 56 C49.66 56 50.32 56 51 56 C51 56.66 51 57.32 51 58 C51.66 58 52.32 58 53 58 C53 58.66 53 59.32 53 60 C53.66 60 54.32 60 55 60 C58 65.75 58 65.75 58 68 C58.66 68 59.32 68 60 68 C60 68.66 60 69.32 60 70 C60.66 70 61.32 70 62 70 C62 70.66 62 71.32 62 72 C62.66 72 63.32 72 64 72 C64 72.66 64 73.32 64 74 C64.66 74 65.32 74 66 74 C66 74.66 66 75.32 66 76 C66.66 76 67.32 76 68 76 C68 76.66 68 77.32 68 78 C68.66 78 69.32 78 70 78 C70 78.99 70 79.98 70 81 C70.66 81 71.32 81 72 81 C72 81.66 72 82.32 72 83 C72.66 83 73.32 83 74 83 C74 83.66 74 84.32 74 85 C74.66 85 75.32 85 76 85 C76 85.66 76 86.32 76 87 C76.66 87 77.32 87 78 87 C78 87.66 78 88.32 78 89 C78.66 89 79.32 89 80 89 C80 90.32 80 91.64 80 93 C80.66 93 81.32 93 82 93 C82 93.66 82 94.32 82 95 C82.66 95 83.32 95 84 95 C84 95.66 84 96.32 84 97 C84.66 97 85.32 97 86 97 C86 97.66 86 98.32 86 99 C86.66 99 87.32 99 88 99 C88 99.66 88 100.32 88 101 C88.66 101 89.32 101 90 101 C90 101.66 90 102.32 90 103 C90.66 103 91.32 103 92 103 C92 103.66 92 104.32 92 105 C92.66 105 93.32 105 94 105 C94.33 106.98 94.66 108.96 95 111 C95.66 111 96.32 111 97 111 C97 111.66 97 112.32 97 113 C97.66 113 98.32 113 99 113 C99 113.66 99 114.32 99 115 C99.66 115 100.32 115 101 115 C101 115.66 101 116.32 101 117 C101.66 117 102.32 117 103 117 C103 118.32 103 119.64 103 121 C104.32 121.33 105.64 121.66 107 122 C107 122.66 107 123.32 107 124 C107.66 124 108.32 124 109 124 C109 124.66 109 125.32 109 126 C109.66 126 110.32 126 111 126 C111 126.66 111 127.32 111 128 C111.66 128 112.32 128 113 128 C113 128.66 113 129.32 113 130 C113.66 130 114.32 130 115 130 C115 131.32 115 132.64 115 134 C115.66 134 116.32 134 117 134 C117 134.66 117 135.32 117 136 C117.66 136 118.32 136 119 136 C119 136.66 119 137.32 119 138 C119.66 138 120.32 138 121 138 C121 195.75 121 253.5 121 313 C120.34 313 119.68 313 119 313 C119 312.34 119 311.68 119 311 C116.36 310.67 113.72 310.34 111 310 C111 309.34 111 308.68 111 308 C110.34 308 109.68 308 109 308 C109 307.34 109 306.68 109 306 C107.68 306 106.36 306 105 306 C105 305.34 105 304.68 105 304 C103.68 304 102.36 304 101 304 C101 303.34 101 302.68 101 302 C100.34 302 99.68 302 99 302 C99 301.34 99 300.68 99 300 C98.01 300 97.02 300 96 300 C96 299.34 96 298.68 96 298 C94.68 298 93.36 298 92 298 C92 297.34 92 296.68 92 296 C91.34 296 90.68 296 90 296 C90 295.34 90 294.68 90 294 C88.68 294 87.36 294 86 294 C86 293.34 86 292.68 86 292 C84.68 292 83.36 292 82 292 C82 291.34 82 290.68 82 290 C81.34 290 80.68 290 80 290 C80 289.34 80 288.68 80 288 C78.68 288 77.36 288 76 288 C76 287.34 76 286.68 76 286 C74.68 286 73.36 286 72 286 C72 285.34 72 284.68 72 284 C71.34 284 70.68 284 70 284 C70 283.34 70 282.68 70 282 C68.68 282 67.36 282 66 282 C66 281.34 66 280.68 66 280 C65.34 280 64.68 280 64 280 C64 279.34 64 278.68 64 278 C63.0925 277.896875 62.185 277.79375 61.25 277.6875 C57.90259142 276.97939434 56.605608 276.0844864 54 274 C51.85266073 273.29485154 51.85266073 273.29485154 50 273 C50 272.34 50 271.68 50 271 C49.01 271 48.02 271 47 271 C47 270.34 47 269.68 47 269 C46.34 269 45.68 269 45 269 C45 268.34 45 267.68 45 267 C43.68 267 42.36 267 41 267 C41 266.34 41 265.68 41 265 C40.34 265 39.68 265 39 265 C39 264.34 39 263.68 39 263 C37.68 263 36.36 263 35 263 C35 262.34 35 261.68 35 261 C33.68 261 32.36 261 31 261 C31 260.34 31 259.68 31 259 C30.34 259 29.68 259 29 259 C29 258.34 29 257.68 29 257 C27.68 257 26.36 257 25 257 C25 256.34 25 255.68 25 255 C23.68 255 22.36 255 21 255 C21 254.34 21 253.68 21 253 C20.34 253 19.68 253 19 253 C19 252.34 19 251.68 19 251 C18.01 251 17.02 251 16 251 C16 250.34 16 249.68 16 249 C14.68 249 13.36 249 12 249 C12 248.34 12 247.68 12 247 C11.34 247 10.68 247 10 247 C10 246.34 10 245.68 10 245 C8.68 245 7.36 245 6 245 C6 244.34 6 243.68 6 243 C4.02 243 2.04 243 0 243 C0 243.66 0 244.32 0 245 C-1.32 245 -2.64 245 -4 245 C-4 245.66 -4 246.32 -4 247 C-4.66 247 -5.32 247 -6 247 C-6 247.66 -6 248.32 -6 249 C-7.32 249 -8.64 249 -10 249 C-10 249.66 -10 250.32 -10 251 C-10.66 251 -11.32 251 -12 251 C-12 251.66 -12 252.32 -12 253 C-13.32 253 -14.64 253 -16 253 C-16 253.66 -16 254.32 -16 255 C-16.99 255 -17.98 255 -19 255 C-19 255.66 -19 256.32 -19 257 C-20.32 257 -21.64 257 -23 257 C-23 257.66 -23 258.32 -23 259 C-23.66 259 -24.32 259 -25 259 C-25 259.66 -25 260.32 -25 261 C-26.32 261 -27.64 261 -29 261 C-29 261.66 -29 262.32 -29 263 C-30.32 263 -31.64 263 -33 263 C-33 263.66 -33 264.32 -33 265 C-33.66 265 -34.32 265 -35 265 C-35 265.66 -35 266.32 -35 267 C-36.32 267 -37.64 267 -39 267 C-39 267.66 -39 268.32 -39 269 C-39.66 269 -40.32 269 -41 269 C-41 269.66 -41 270.32 -41 271 C-42.32 271 -43.64 271 -45 271 C-45 271.66 -45 272.32 -45 273 C-47.64 273.33 -50.28 273.66 -53 274 C-53 274.66 -53 275.32 -53 276 C-54.32 276 -55.64 276 -57 276 C-57 276.66 -57 277.32 -57 278 C-57.66 278 -58.32 278 -59 278 C-59 278.66 -59 279.32 -59 280 C-59.99 280 -60.98 280 -62 280 C-62 280.66 -62 281.32 -62 282 C-63.32 282 -64.64 282 -66 282 C-66 282.66 -66 283.32 -66 284 C-66.66 284 -67.32 284 -68 284 C-68 284.66 -68 285.32 -68 286 C-69.32 286 -70.64 286 -72 286 C-72 286.66 -72 287.32 -72 288 C-72.66 288 -73.32 288 -74 288 C-74 288.66 -74 289.32 -74 290 C-75.32 290 -76.64 290 -78 290 C-78 290.66 -78 291.32 -78 292 C-78.66 292 -79.32 292 -80 292 C-80 292.66 -80 293.32 -80 294 C-81.32 294 -82.64 294 -84 294 C-84 294.66 -84 295.32 -84 296 C-85.32 296 -86.64 296 -88 296 C-88 296.66 -88 297.32 -88 298 C-88.66 298 -89.32 298 -90 298 C-90 298.66 -90 299.32 -90 300 C-91.32 300 -92.64 300 -94 300 C-94 300.66 -94 301.32 -94 302 C-94.99 302 -95.98 302 -97 302 C-97 302.66 -97 303.32 -97 304 C-98.32 304 -99.64 304 -101 304 C-101 304.66 -101 305.32 -101 306 C-101.66 306 -102.32 306 -103 306 C-103 306.66 -103 307.32 -103 308 C-104.32 308 -105.64 308 -107 308 C-107 308.66 -107 309.32 -107 310 C-107.66 310 -108.32 310 -109 310 C-109 310.66 -109 311.32 -109 312 C-111.64 312.33 -114.28 312.66 -117 313 C-117 313.66 -117 314.32 -117 315 C-117.66 315 -118.32 315 -119 315 C-119 257.25 -119 199.5 -119 140 C-118.34 140 -117.68 140 -117 140 C-117 138.68 -117 137.36 -117 136 C-116.34 136 -115.68 136 -115 136 C-115 135.34 -115 134.68 -115 134 C-114.34 134 -113.68 134 -113 134 C-113 133.34 -113 132.68 -113 132 C-112.34 132 -111.68 132 -111 132 C-111 131.34 -111 130.68 -111 130 C-110.34 130 -109.68 130 -109 130 C-109 129.34 -109 128.68 -109 128 C-108.34 128 -107.68 128 -107 128 C-107 127.34 -107 126.68 -107 126 C-106.34 126 -105.68 126 -105 126 C-105 124.68 -105 123.36 -105 122 C-103.02 121.505 -103.02 121.505 -101 121 C-101 120.34 -101 119.68 -101 119 C-100.34 119 -99.68 119 -99 119 C-98.9175 118.46375 -98.835 117.9275 -98.75 117.375 C-97.72418729 114.12659309 -96.03436106 111.71248141 -94 109 C-93.34 109 -92.68 109 -92 109 C-92 108.34 -92 107.68 -92 107 C-91.34 107 -90.68 107 -90 107 C-90 106.34 -90 105.68 -90 105 C-89.34 105 -88.68 105 -88 105 C-88 104.34 -88 103.68 -88 103 C-87.34 103 -86.68 103 -86 103 C-86 102.34 -86 101.68 -86 101 C-85.34 101 -84.68 101 -84 101 C-84 100.34 -84 99.68 -84 99 C-83.34 99 -82.68 99 -82 99 C-82 97.68 -82 96.36 -82 95 C-81.34 95 -80.68 95 -80 95 C-80 94.34 -80 93.68 -80 93 C-79.34 93 -78.68 93 -78 93 C-78 92.34 -78 91.68 -78 91 C-77.34 91 -76.68 91 -76 91 C-76 90.34 -76 89.68 -76 89 C-75.34 89 -74.68 89 -74 89 C-74 88.34 -74 87.68 -74 87 C-73.34 87 -72.68 87 -72 87 C-72 86.34 -72 85.68 -72 85 C-71.34 85 -70.68 85 -70 85 C-70 84.01 -70 83.02 -70 82 C-69.34 82 -68.68 82 -68 82 C-68 81.34 -68 80.68 -68 80 C-67.34 80 -66.68 80 -66 80 C-66 79.34 -66 78.68 -66 78 C-65.34 78 -64.68 78 -64 78 C-64 77.34 -64 76.68 -64 76 C-63.34 76 -62.68 76 -62 76 C-62 75.34 -62 74.68 -62 74 C-61.34 74 -60.68 74 -60 74 C-60 72.68 -60 71.36 -60 70 C-59.34 70 -58.68 70 -58 70 C-57.505 68.02 -57.505 68.02 -57 66 C-56.34 66 -55.68 66 -55 66 C-55 65.34 -55 64.68 -55 64 C-54.34 64 -53.68 64 -53 64 C-53 63.34 -53 62.68 -53 62 C-52.34 62 -51.68 62 -51 62 C-51 61.34 -51 60.68 -51 60 C-50.34 60 -49.68 60 -49 60 C-49 59.34 -49 58.68 -49 58 C-48.34 58 -47.68 58 -47 58 C-47 56.68 -47 55.36 -47 54 C-46.34 54 -45.68 54 -45 54 C-45 53.34 -45 52.68 -45 52 C-44.34 52 -43.68 52 -43 52 C-43 51.34 -43 50.68 -43 50 C-42.34 50 -41.68 50 -41 50 C-41 49.34 -41 48.68 -41 48 C-40.34 48 -39.68 48 -39 48 C-39 47.34 -39 46.68 -39 46 C-37.68 45.67 -36.36 45.34 -35 45 C-35 43.68 -35 42.36 -35 41 C-34.34 41 -33.68 41 -33 41 C-33 40.34 -33 39.68 -33 39 C-32.34 39 -31.68 39 -31 39 C-31 38.34 -31 37.68 -31 37 C-30.34 37 -29.68 37 -29 37 C-29 36.34 -29 35.68 -29 35 C-28.34 35 -27.68 35 -27 35 C-27 34.34 -27 33.68 -27 33 C-26.34 33 -25.68 33 -25 33 C-25 32.34 -25 31.68 -25 31 C-24.34 31 -23.68 31 -23 31 C-23 29.68 -23 28.36 -23 27 C-22.34 27 -21.68 27 -21 27 C-21 26.34 -21 25.68 -21 25 C-20.34 25 -19.68 25 -19 25 C-18.67 23.68 -18.34 22.36 -18 21 C-17.34 21 -16.68 21 -16 21 C-16 20.34 -16 19.68 -16 19 C-15.34 19 -14.68 19 -14 19 C-14 18.34 -14 17.68 -14 17 C-13.34 17 -12.68 17 -12 17 C-12 15.68 -12 14.36 -12 13 C-11.34 13 -10.68 13 -10 13 C-10 12.34 -10 11.68 -10 11 C-9.34 11 -8.68 11 -8 11 C-8 10.34 -8 9.68 -8 9 C-7.34 9 -6.68 9 -6 9 C-6 8.34 -6 7.68 -6 7 C-5.34 7 -4.68 7 -4 7 C-4 6.34 -4 5.68 -4 5 C-3.34 5 -2.68 5 -2 5 C-2 4.01 -2 3.02 -2 2 C-1.34 2 -0.68 2 0 2 C0 1.34 0 0.68 0 0 Z " fill="#5E1F20" transform="translate(419,170)"/>
<path d="M0 0 C0 71.28 0 142.56 0 216 C-40.59 216 -81.18 216 -123 216 C-123 160.56 -123 105.12 -123 48 C-122.34 48 -121.68 48 -121 48 C-121 47.34 -121 46.68 -121 46 C-119.02 46 -117.04 46 -115 46 C-115 45.34 -115 44.68 -115 44 C-113.87851563 43.80083984 -113.87851563 43.80083984 -112.734375 43.59765625 C-111.74953125 43.42105469 -110.7646875 43.24445312 -109.75 43.0625 C-108.77546875 42.88847656 -107.8009375 42.71445312 -106.796875 42.53515625 C-104.50278205 42.09620271 -102.25708029 41.59651408 -100 41 C-100 40.34 -100 39.68 -100 39 C-98.02 39 -96.04 39 -94 39 C-94 38.34 -94 37.68 -94 37 C-92.68 37 -91.36 37 -90 37 C-90 36.34 -90 35.68 -90 35 C-88.68 35 -87.36 35 -86 35 C-86 34.34 -86 33.68 -86 33 C-84.68 33 -83.36 33 -82 33 C-82 32.34 -82 31.68 -82 31 C-80.02 31 -78.04 31 -76 31 C-76 30.34 -76 29.68 -76 29 C-74.02 29 -72.04 29 -70 29 C-70 28.34 -70 27.68 -70 27 C-68.35 27 -66.7 27 -65 27 C-65 26.34 -65 25.68 -65 25 C-63.68 25 -62.36 25 -61 25 C-61 24.34 -61 23.68 -61 23 C-59.02 23 -57.04 23 -55 23 C-55 22.34 -55 21.68 -55 21 C-53.68 21 -52.36 21 -51 21 C-51 20.34 -51 19.68 -51 19 C-49.02 19 -47.04 19 -45 19 C-45 18.34 -45 17.68 -45 17 C-43.68 17 -42.36 17 -41 17 C-41 16.34 -41 15.68 -41 15 C-39.68 15 -38.36 15 -37 15 C-37 14.34 -37 13.68 -37 13 C-35.02 13 -33.04 13 -31 13 C-31 12.34 -31 11.68 -31 11 C-29.35 11 -27.7 11 -26 11 C-26 10.34 -26 9.68 -26 9 C-22.7 8.67 -19.4 8.34 -16 8 C-16 7.01 -16 6.02 -16 5 C-14.68 5 -13.36 5 -12 5 C-12 4.01 -12 3.02 -12 2 C-10.37548581 1.66430703 -8.75037083 1.3315204 -7.125 1 C-6.22007812 0.814375 -5.31515625 0.62875 -4.3828125 0.4375 C-2 0 -2 0 0 0 Z " fill="#5E1F20" transform="translate(164,638)"/>
<path d="M0 0 C1.32 0 2.64 0 4 0 C4 0.66 4 1.32 4 2 C5.98 2 7.96 2 10 2 C10 2.66 10 3.32 10 4 C10.78375 4.12375 11.5675 4.2475 12.375 4.375 C16.9353326 5.16126424 21.46567093 6.07700416 26 7 C26 7.66 26 8.32 26 9 C27.65 9 29.3 9 31 9 C31 9.66 31 10.32 31 11 C32.32 11 33.64 11 35 11 C35 11.66 35 12.32 35 13 C36.32 13 37.64 13 39 13 C39 13.66 39 14.32 39 15 C40.98 15 42.96 15 45 15 C45 15.66 45 16.32 45 17 C46.32 17 47.64 17 49 17 C49 17.66 49 18.32 49 19 C50.98 19 52.96 19 55 19 C55 19.66 55 20.32 55 21 C56.32 21 57.64 21 59 21 C59 21.66 59 22.32 59 23 C61.31 23 63.62 23 66 23 C66 23.66 66 24.32 66 25 C67.32 25 68.64 25 70 25 C70 25.66 70 26.32 70 27 C71.32 27 72.64 27 74 27 C74 27.66 74 28.32 74 29 C75.98 29 77.96 29 80 29 C80 29.66 80 30.32 80 31 C81.32 31 82.64 31 84 31 C84 31.66 84 32.32 84 33 C85.98 33 87.96 33 90 33 C90 33.66 90 34.32 90 35 C91.32 35 92.64 35 94 35 C94 35.66 94 36.32 94 37 C95.32 37 96.64 37 98 37 C98 37.66 98 38.32 98 39 C98.886875 38.95875 99.77375 38.9175 100.6875 38.875 C104.04507092 39.00170079 105.94930807 39.70345593 109 41 C110.9924325 41.37593066 112.9918674 41.71979545 115 42 C115 42.66 115 43.32 115 44 C116.98 44 118.96 44 121 44 C121 44.66 121 45.32 121 46 C121.66 46 122.32 46 123 46 C123 101.44 123 156.88 123 214 C82.41 214 41.82 214 0 214 C0 143.38 0 72.76 0 0 Z " fill="#5E1F20" transform="translate(678,640)"/>
<path d="M0 0 C11.55 0 23.1 0 35 0 C35 19.14 35 38.28 35 58 C54.47 58 73.94 58 94 58 C94 69.88 94 81.76 94 94 C74.86 94 55.72 94 36 94 C36 120.07 36 146.14 36 173 C34.02 172.01 34.02 172.01 32 171 C32 170.01 32 169.02 32 168 C31.34 168 30.68 168 30 168 C30 167.34 30 166.68 30 166 C29.34 166 28.68 166 28 166 C28 165.34 28 164.68 28 164 C27.34 164 26.68 164 26 164 C26 163.34 26 162.68 26 162 C25.34 162 24.68 162 24 162 C24 161.34 24 160.68 24 160 C23.34 160 22.68 160 22 160 C22 159.34 22 158.68 22 158 C21.34 158 20.68 158 20 158 C20 156.68 20 155.36 20 154 C18.68 154 17.36 154 16 154 C16 154.66 16 155.32 16 156 C15.34 156 14.68 156 14 156 C14 156.66 14 157.32 14 158 C13.34 158 12.68 158 12 158 C12 158.66 12 159.32 12 160 C11.34 160 10.68 160 10 160 C10 161.32 10 162.64 10 164 C9.34 164 8.68 164 8 164 C8 164.66 8 165.32 8 166 C7.34 166 6.68 166 6 166 C5.67 167.32 5.34 168.64 5 170 C4.34 170 3.68 170 3 170 C3 170.66 3 171.32 3 172 C2.01 172 1.02 172 0 172 C0 146.26 0 120.52 0 94 C-19.8 94 -39.6 94 -60 94 C-60 82.12 -60 70.24 -60 58 C-40.2 58 -20.4 58 0 58 C0 38.86 0 19.72 0 0 Z " fill="#5E1F20" transform="translate(403,4)"/>
<path d="M0 0 C0.33 0 0.66 0 1 0 C1 26.07 1 52.14 1 79 C0.01 78.34 -0.98 77.68 -2 77 C-1.83923477 76.48757751 -1.67846954 75.97515503 -1.51283264 75.44720459 C-0.83642721 72.21944111 -0.83448878 69.1433563 -0.79467773 65.84472656 C-0.78477814 65.13213181 -0.77487854 64.41953705 -0.76467896 63.68534851 C-0.73316861 61.33714078 -0.70834809 58.98891285 -0.68359375 56.640625 C-0.66301517 55.00965864 -0.64201846 53.37869751 -0.62062073 51.7477417 C-0.56549335 47.46030923 -0.51604301 43.17282937 -0.46777344 38.88531494 C-0.41749017 34.50813594 -0.36183976 30.13102553 -0.30664062 25.75390625 C-0.19917325 17.16932888 -0.09770304 8.58469402 0 0 Z " fill="#5E1F20" transform="translate(437,98)"/>
<path d="M0 0 C0.66 0 1.32 0 2 0 C2 1.32 2 2.64 2 4 C-34.63 3.505 -34.63 3.505 -72 3 C-72 2.67 -72 2.34 -72 2 C-48.24 2 -24.48 2 0 2 C0 1.34 0 0.68 0 0 Z " fill="#5E1F20" transform="translate(456,374)"/>
<path d="M0 0 C0.33 0 0.66 0 1 0 C1 5.61 1 11.22 1 17 C0.01 16.34 -0.98 15.68 -2 15 C-1.34 10.05 -0.68 5.1 0 0 Z " fill="#5E1F20" transform="translate(437,160)"/>
</svg>
