<?xml version="1.0" encoding="UTF-8"?>
<svg version="1.1" xmlns="http://www.w3.org/2000/svg" width="1920" height="1622">
<path d="M0 0 C5.93584264 -0.02910154 11.87168007 -0.05216684 17.80756974 -0.06923461 C20.95723375 -0.07857136 24.10676724 -0.09210271 27.25637734 -0.11314666 C92.23873706 -0.53999334 156.86049938 10.78626178 210.93233025 49.05932724 C212.05821051 49.83598077 213.18453423 50.61199171 214.3112365 51.38745224 C222.60396983 57.14565885 230.37491545 63.36919551 237.93233025 70.05932724 C238.68594841 70.72617539 238.68594841 70.72617539 239.45479119 71.40649521 C251.16603437 81.83384478 262.26190892 92.68861375 271.93233025 105.05932724 C272.81240716 106.15032892 273.69398792 107.24011874 274.5768615 108.32885849 C281.22426345 116.57636582 287.2807487 125.10104114 292.93233025 134.05932724 C293.33274529 134.691129 293.73316033 135.32293076 294.14570916 135.97387803 C325.39272316 185.795436 336.1101996 241.17910627 336.07277215 299.22827256 C336.07536493 300.87422707 336.07838057 302.52018095 336.08177555 304.166134 C336.08973993 308.63258759 336.09162909 313.09902503 336.09237301 317.56548488 C336.09424195 322.40385509 336.10179757 327.24221727 336.10850823 332.08058274 C336.1220103 342.62737142 336.12810171 353.17415627 336.13251889 363.72095215 C336.1352916 370.31196528 336.13953043 376.90297696 336.14402306 383.49398911 C336.15619839 401.76488762 336.16650545 420.03578499 336.16989815 438.30668747 C336.17011772 439.47268135 336.17033728 440.63867522 336.1705635 441.84000224 C336.17078178 443.0086362 336.17100006 444.17727015 336.17122495 445.38131726 C336.17166841 447.74908491 336.17211497 450.11685256 336.17256463 452.48462021 C336.17278606 453.65909215 336.17300749 454.83356408 336.17323563 456.04362607 C336.17719066 475.10876344 336.19467391 494.17386277 336.21792415 513.23898542 C336.2416353 532.84080017 336.25409966 552.4425958 336.25526607 572.04442513 C336.25618224 583.0394446 336.2619213 594.03441428 336.28008568 605.02942002 C336.29548248 614.38128438 336.30060908 623.73308351 336.29234758 633.08495814 C336.28844145 637.85384878 336.28936946 642.622608 336.30340493 647.39148247 C336.31614362 651.75959606 336.31494669 656.12747944 336.30281422 660.49559271 C336.30085735 662.07261333 336.30393516 663.64965027 336.31265858 665.22664797 C336.42163918 686.26519484 336.42163918 686.26519484 329.05733025 694.05932724 C328.39990838 694.78120224 327.7424865 695.50307724 327.06514275 696.24682724 C323.06689885 699.64460228 319.29244472 700.30934842 314.14077413 700.31462824 C312.97364259 700.32066018 311.80651105 700.32669212 310.60401189 700.33290684 C309.32340847 700.3293679 308.04280505 700.32582896 306.72339547 700.32218277 C305.3423035 700.32548265 303.96121338 700.32965548 302.5801264 700.33462298 C298.7687021 700.34576809 294.95736757 700.34440933 291.14593217 700.3410678 C287.00547464 700.33960743 282.86504261 700.34964716 278.7245959 700.35821784 C270.50528838 700.37339096 262.28600683 700.37776462 254.06668676 700.37887595 C244.2246927 700.38070191 234.38272274 700.39403302 224.54073903 700.40756959 C200.75245241 700.4397065 176.96416833 700.45149767 153.1758639 700.46106709 C141.92621978 700.46573687 130.67657771 700.47294189 119.42693518 700.48045785 C80.93050215 700.50612913 42.43407027 700.52756846 3.93762887 700.53446305 C1.52056803 700.53490632 -0.89649281 700.53534988 -3.31355365 700.53579375 C-5.73650147 700.53623503 -8.15944928 700.536676 -10.5823971 700.53711665 C-15.4433734 700.53800176 -20.3043497 700.53889599 -25.165326 700.53979599 C-26.97318845 700.54012417 -26.97318845 700.54012417 -28.81757337 700.54045897 C-67.9107463 700.54772266 -107.00384512 700.5795722 -146.09698966 700.62617672 C-187.41319626 700.67534155 -228.72936048 700.70280721 -270.0455972 700.70519888 C-274.57886669 700.7055418 -279.11213617 700.70597266 -283.64540565 700.70646775 C-284.76165193 700.70657929 -285.87789821 700.70669082 -287.02797013 700.70680574 C-305.00985434 700.70910928 -322.99166263 700.73117445 -340.97352118 700.76024186 C-359.03867935 700.78893956 -377.10373994 700.7954641 -395.16891465 700.7793619 C-405.9072749 700.77043438 -416.64532069 700.77822975 -427.38363978 700.80983892 C-434.5528346 700.82929276 -441.72180834 700.82702659 -448.89100099 700.80696646 C-452.97842435 700.79614882 -457.06524249 700.79486762 -461.15261647 700.8199839 C-464.87211695 700.84264936 -468.59051944 700.83763072 -472.30998173 700.81064975 C-474.27588654 700.80349031 -476.24183155 700.82574269 -478.20760906 700.84923232 C-486.02877979 700.75623894 -491.25486038 699.47561288 -497.06766975 694.05932724 C-505.27390908 684.31325649 -504.35982032 671.8339353 -504.32836616 659.76594651 C-504.33139021 658.11711313 -504.33528096 656.46828115 -504.33995873 654.81945163 C-504.35021676 650.30703557 -504.34806238 645.79469916 -504.34377813 641.28227663 C-504.34130656 636.4072313 -504.35033104 631.53220494 -504.35781562 626.6571666 C-504.37055793 617.10829938 -504.37235646 607.55946029 -504.37001536 598.010586 C-504.36822958 590.23648758 -504.36998746 582.46239766 -504.3742398 574.68830025 C-504.37483499 573.58013498 -504.37543018 572.47196971 -504.37604341 571.33022368 C-504.37725525 569.07846568 -504.37846938 566.82670769 -504.37968578 564.5749497 C-504.39056196 543.45570827 -504.38839993 522.33648281 -504.38230094 501.21724048 C-504.37714586 481.95884984 -504.38834973 462.70051 -504.40739916 443.44212941 C-504.42684956 423.62463088 -504.43502009 403.80715628 -504.4312759 383.98964816 C-504.42937292 372.8815029 -504.43176147 361.77340071 -504.44599044 350.6652633 C-504.45799822 341.1955901 -504.45920617 331.72598642 -504.44720028 322.25631211 C-504.44137334 317.43829808 -504.44003632 312.62041055 -504.45220268 307.80240548 C-504.54431739 268.51568155 -501.73045402 230.59858828 -489.06766975 193.05932724 C-488.81968635 192.30635361 -488.57170295 191.55337998 -488.31620491 190.77758896 C-477.90724696 159.49723301 -461.23325762 130.29218293 -440.06766975 105.05932724 C-439.65645881 104.55933213 -439.24524787 104.05933701 -438.821576 103.54419053 C-427.50108791 89.79143815 -415.17429481 76.97540695 -401.06766975 66.05932724 C-400.01510336 65.20736132 -398.96441508 64.35307139 -397.915326 63.49682724 C-361.02203156 33.59146841 -316.44883821 13.75059195 -269.81766975 5.24682724 C-268.75540168 5.05193711 -267.69313362 4.85704697 -266.59867561 4.65625107 C-248.91858296 1.62793295 -231.21257444 0.75918761 -213.30448616 0.74047959 C-211.21643914 0.73114713 -209.12839575 0.72097375 -207.04035652 0.7100383 C-201.42185437 0.68298737 -195.80337702 0.66764498 -190.18482721 0.65461028 C-184.21657869 0.63874484 -178.24837775 0.61199582 -172.28016365 0.58657944 C-162.21862462 0.54519963 -152.15708241 0.5106963 -142.09550178 0.48120224 C-128.14120061 0.44029334 -114.1869646 0.38750436 -100.23271501 0.33196318 C-77.44430276 0.24162386 -54.65589026 0.16889663 -31.86737144 0.11166108 C-21.24485013 0.08458596 -10.62243013 0.05213383 0 0 Z " fill="#5E1F20" transform="translate(1042.06766974926,921.9406727552414)"/>
<path d="M0 0 C5.6923339 -0.01485444 11.38466202 -0.02532634 17.07701015 -0.03285289 C19.20340442 -0.03623724 21.32979714 -0.0408984 23.45618534 -0.04700208 C98.54724396 -0.25492542 170.50658602 15.86711255 229.13803101 65.01811981 C230.66363647 66.26722137 230.66363647 66.26722137 232.22006226 67.54155731 C246.06755107 79.01801117 259.22476847 91.69446273 270.13803101 106.01811981 C271.13664969 107.27833021 272.13677112 108.53735062 273.13803101 109.79546356 C281.24878722 120.07660142 288.44792816 130.7644192 295.13803101 142.01811981 C295.6045105 142.79993622 296.07098999 143.58175262 296.55160522 144.38726044 C323.33042598 189.79034329 333.29465621 240.93928665 333.28520203 293.17470551 C333.28851037 294.8559069 333.29223794 296.5371075 333.29634351 298.21830714 C333.30625898 302.79608157 333.31006311 307.37384291 333.31273282 311.95162654 C333.31666656 316.90455211 333.32624157 321.8574676 333.33494568 326.81038666 C333.35461011 338.74049503 333.36475731 350.67060414 333.37367347 362.60072464 C333.37806737 368.22605915 333.38343079 373.85139274 333.38866234 379.47672653 C333.40565426 398.18156934 333.42015209 416.88641158 333.42741108 435.59126091 C333.42932074 440.43325425 333.43124112 445.27524758 333.43319702 450.11724091 C333.43368076 451.32058719 333.4341645 452.52393347 333.4346629 453.76374479 C333.44297776 473.2921167 333.46834827 492.82042767 333.5007777 512.34877293 C333.53383185 532.41718271 333.5518578 552.48556144 333.55505532 572.55399859 C333.55722046 583.81453219 333.56597137 595.07497652 333.59151649 606.33548355 C333.6131998 615.91509899 333.62128504 625.49460341 333.61154971 635.07424061 C333.60700002 639.96048961 333.60893084 644.84650937 333.62831116 649.73272705 C333.645905 654.20705313 333.64497596 658.68098206 333.62941387 663.15531214 C333.62703224 664.77211089 333.63139008 666.38893689 333.64324252 668.00569396 C333.71431949 678.34270205 332.6896328 685.63997995 326.95053101 694.33061981 C318.21987848 702.67324333 307.41708758 701.57396195 296.09883118 701.49913788 C294.14003084 701.50088309 292.18123142 701.50438709 290.22243696 701.50949454 C284.84970661 701.51842807 279.47729591 701.50245301 274.10460627 701.4823823 C268.3071645 701.46509842 262.50974056 701.47095467 256.71228027 701.47399139 C246.67107312 701.47608816 236.62996998 701.46354477 226.58878899 701.44104004 C212.07096821 701.40852326 197.55319543 701.39809998 183.0353424 701.39308807 C159.48075791 701.38469069 135.92622758 701.35775317 112.37167358 701.31987762 C89.49146818 701.28312894 66.6112776 701.25479986 43.73104858 701.23784637 C43.02554387 701.23732027 42.32003916 701.23679417 41.59315552 701.23625212 C34.50806404 701.23097795 27.42297245 701.22587471 20.33788076 701.22089668 C5.90526099 701.21075235 -8.52735783 701.19946734 -22.9599762 701.18749237 C-23.95531717 701.18666863 -23.95531717 701.18666863 -24.97076605 701.18582825 C-69.26785631 701.14903744 -113.56491616 701.08557472 -157.86196899 701.01811981 C-157.87269282 700.41592967 -157.88341665 699.81373953 -157.89446545 699.1933012 C-158.0086915 692.8021936 -158.12586279 686.41114437 -158.24458313 680.02011871 C-158.28825413 677.64966886 -158.33122718 675.27920603 -158.37342834 672.90872955 C-159.79966304 592.96652804 -168.66699364 516.10615939 -214.86196899 448.01811981 C-215.35020142 447.29334442 -215.83843384 446.56856903 -216.34146118 445.82183075 C-225.94614171 431.64590478 -236.54463709 418.3386958 -248.23696899 405.83061981 C-250.88538314 402.99303322 -253.4669168 400.1031174 -256.04946899 397.20561981 C-259.42239592 393.49381168 -262.86221623 390.09097402 -266.70181274 386.86968231 C-269.31727871 384.62785434 -271.79481064 382.25806253 -274.29946899 379.89311981 C-281.69936894 373.02024762 -289.75046783 367.01764906 -297.86196899 361.01811981 C-298.48394165 360.55486298 -299.10591431 360.09160614 -299.74673462 359.61431122 C-334.64166516 333.71006907 -375.47158197 316.99212932 -417.86196899 308.01811981 C-417.86196899 306.69811981 -417.86196899 305.37811981 -417.86196899 304.01811981 C-415.89956665 302.09380341 -415.89956665 302.09380341 -413.15103149 300.04155731 C-406.94126222 295.17992239 -401.39549585 289.85635697 -395.84536743 284.26226044 C-394.23849593 282.64465694 -392.62118405 281.03805068 -391.00259399 279.43218231 C-384.51158914 272.95034152 -378.53694553 266.23842118 -372.86196899 259.01811981 C-371.67709353 257.54674924 -370.49219893 256.07539408 -369.30728149 254.60405731 C-361.51806232 244.77877141 -354.37665067 234.73125847 -347.86196899 224.01811981 C-347.41256958 223.28013153 -346.96317017 222.54214325 -346.50015259 221.78179169 C-321.66654753 180.65966739 -303.92106634 134.1893353 -299.86196899 86.01811981 C-299.73386841 84.57239594 -299.73386841 84.57239594 -299.60317993 83.09746552 C-298.81584932 73.41232526 -298.70605725 63.789275 -298.73696899 54.08061981 C-298.73785522 53.27661743 -298.73874146 52.47261505 -298.73965454 51.64424896 C-298.75672941 38.41565865 -299.08747142 25.22606947 -299.86196899 12.01811981 C-261.86586989 1.08527998 -223.85916364 0.70328789 -184.64018822 0.61340284 C-178.58847796 0.59751383 -172.53681436 0.57078098 -166.48513794 0.54537201 C-156.30477331 0.50407539 -146.12440554 0.46953208 -135.94400024 0.43999481 C-121.76968189 0.39886895 -107.59542557 0.34614682 -93.42115688 0.29071498 C-65.66317633 0.18299202 -37.90518384 0.08429239 -10.14705276 0.02549648 C-6.764699 0.01790139 -3.38235016 0.00904901 0 0 Z " fill="#5E1F20" transform="translate(1586.8619689941406,574.9818801879883)"/>
<path d="M0 0 C6.85029024 -0.01953106 13.70056522 -0.03461027 20.55087781 -0.04352415 C22.67661443 -0.04681429 24.80234957 -0.05136753 26.92808032 -0.05734789 C61.58903276 -0.15080487 95.95553577 2.04191907 129.58505154 11.00978994 C129.5244656 11.94025137 129.46387966 12.8707128 129.40145779 13.82937002 C123.64670182 103.35455929 141.81868585 192.01129592 202.36215115 261.25637197 C203.33042481 262.35155142 204.30094484 263.44475012 205.27401638 264.53566885 C206.41783091 265.82176794 207.54402521 267.12349483 208.66708279 268.42775869 C219.30350811 280.61664058 230.82632772 292.77419477 243.84677029 302.41603994 C244.4204031 302.94197744 244.99403591 303.46791494 245.58505154 304.00978994 C245.58505154 304.99978994 245.58505154 305.98978994 245.58505154 307.00978994 C244.99304958 307.15489004 244.40104763 307.29999014 243.79110622 307.44948721 C185.86725325 321.77420114 127.99373882 350.71451656 86.38192654 394.31838369 C84.58505154 396.00978994 84.58505154 396.00978994 82.58505154 396.00978994 C82.3697781 396.55506338 82.15450466 397.10033682 81.93270779 397.66213369 C80.12368981 400.81349545 77.62791585 403.08828351 75.02255154 405.57228994 C69.41530594 411.05457598 64.41082864 416.82113796 59.58505154 423.00978994 C58.80774685 423.98174307 58.03044216 424.95369619 57.22958279 425.95510244 C0.81282164 497.52994408 -12.61932553 585.11995789 -13.97744846 673.69728994 C-14.0203675 676.35680707 -14.0643721 679.01630489 -14.10830784 681.67580557 C-14.2141076 688.12041326 -14.3160828 694.56507234 -14.41494846 701.00978994 C-59.02915225 701.06113998 -103.64335926 701.1088528 -148.25758457 701.13681936 C-149.24788533 701.13744062 -149.24788533 701.13744062 -150.25819217 701.13807443 C-164.60578639 701.14705294 -178.95338092 701.15536352 -193.30097592 701.16298593 C-200.33693233 701.16672797 -207.37288866 701.17061763 -214.40884495 701.17458487 C-215.10901086 701.17497714 -215.80917677 701.17536942 -216.53055983 701.17577358 C-239.22899198 701.18855988 -261.92740174 701.21109549 -284.62582032 701.23868161 C-308.61050373 701.26777805 -332.59517247 701.28577676 -356.57987303 701.29205543 C-370.95037502 701.29617659 -385.32081274 701.30920397 -399.69129496 701.33353934 C-409.53889412 701.34936844 -419.38645994 701.35419671 -429.2340709 701.35029408 C-434.91990537 701.34836813 -440.60562733 701.35136923 -446.29144192 701.36740637 C-451.49464057 701.38197543 -456.69765076 701.38276173 -461.90085798 701.37248663 C-463.78522687 701.37121617 -465.66960739 701.37504698 -467.5539533 701.38443949 C-470.11255577 701.39645336 -472.67047514 701.39000529 -475.22906685 701.37893343 C-475.96311577 701.38681447 -476.69716468 701.39469551 -477.4534575 701.40281537 C-483.86198974 701.34001694 -489.16774271 699.49229553 -494.10244846 695.32228994 C-494.64256565 694.88529776 -495.18268284 694.44830557 -495.73916721 693.99807119 C-502.63646726 685.81456135 -501.98084999 677.15909055 -501.92288303 667.05683279 C-501.92749428 665.3120008 -501.9338487 663.56717271 -501.94179201 661.82235271 C-501.95848087 657.03537764 -501.95024059 652.2487218 -501.93784714 647.46174562 C-501.9287959 642.29497379 -501.94276763 637.12825681 -501.95376682 631.96149588 C-501.97156296 621.83747948 -501.96770507 611.71358165 -501.95611626 601.58956059 C-501.94707707 593.35055624 -501.94586009 585.11158508 -501.95021152 576.87257719 C-501.95082446 575.69915274 -501.95143739 574.52572829 -501.9520689 573.31674552 C-501.95334786 570.93259053 -501.95464471 568.54843555 -501.95595926 566.16428057 C-501.96737072 543.79521222 -501.95424741 521.42620938 -501.93275779 499.05715177 C-501.91493065 479.90941419 -501.91795357 460.76177376 -501.93643284 441.61403799 C-501.95790623 419.35362758 -501.96622542 397.09327485 -501.95398378 374.83285552 C-501.9527097 372.45173777 -501.95145221 370.07062001 -501.95021152 367.68950224 C-501.94928587 365.93247447 -501.94928587 365.93247447 -501.94834152 364.1399512 C-501.94490464 355.93110077 -501.95068183 347.72228723 -501.96012974 339.51344252 C-501.97142512 329.47887885 -501.96815484 319.4444401 -501.94700676 309.4098905 C-501.9365899 304.30072297 -501.93221108 299.19176262 -501.94560337 294.08259726 C-502.05907743 246.79103413 -494.52344924 201.86291355 -473.41494846 159.00978994 C-473.03789768 158.23264639 -472.6608469 157.45550283 -472.27237034 156.65480947 C-461.49321634 134.61773196 -447.36465718 114.43195249 -430.68838596 96.46682119 C-428.6731043 94.28879342 -426.7222241 92.07369708 -424.78994846 89.82228994 C-418.84203324 82.99681346 -412.33518552 76.83505279 -405.41494846 71.00978994 C-404.91092503 70.57602041 -404.40690159 70.14225088 -403.88760471 69.69533682 C-347.94285622 21.69655145 -278.60149025 1.01517697 -205.82949924 0.80446768 C-203.7013948 0.79486346 -201.57329217 0.784852 -199.44519138 0.7744689 C-193.69917508 0.74760422 -187.9531508 0.72647345 -182.20710707 0.70646691 C-176.12865842 0.68435708 -170.05023283 0.65706268 -163.97180271 0.63041067 C-153.73167061 0.58623134 -143.49152972 0.54546799 -133.25137424 0.5071044 C-118.9933524 0.45367832 -104.7353632 0.3937885 -90.47737241 0.33270872 C-80.43637493 0.28996741 -70.39537037 0.24892524 -60.35436487 0.20811725 C-57.96619536 0.19839489 -55.57802607 0.18861942 -53.18985701 0.17878747 C-37.69787635 0.11507853 -22.20589845 0.05904997 -6.71383858 0.01852703 C-4.47589171 0.01259984 -2.23794552 0.00641572 0 0 Z " fill="#5E1F20" transform="translate(501.41494846343994,574.9902100563049)"/>
<path d="M0 0 C0.76924805 0.33644531 1.53849609 0.67289062 2.33105469 1.01953125 C24.58895105 10.83372886 45.57350038 24.12444436 64 40 C65.08081217 40.89860371 66.16292015 41.7956504 67.24609375 42.69140625 C80.03263558 53.3444552 91.73749133 64.87980503 102 78 C102.93860318 79.14033382 103.88019595 80.27821124 104.82421875 81.4140625 C143.34133216 128.04200911 164.60490703 188.76837739 166 249 C166.03996094 250.14597656 166.07992187 251.29195312 166.12109375 252.47265625 C166.97452933 297.00191288 156.35689719 341.04341451 137 381 C136.49678223 382.0533252 136.49678223 382.0533252 135.98339844 383.12792969 C125.02157106 405.81837237 109.84518295 426.84842936 92.62109375 445.19140625 C90.17323922 447.81436811 87.80247967 450.49001001 85.4375 453.1875 C80.9428666 458.18330491 76.08358358 462.61330017 71 467 C70.03449219 467.85335938 69.06898438 468.70671875 68.07421875 469.5859375 C12.82267901 517.92994181 -61.09368165 540.98965779 -133.94140625 536.53540039 C-202.98011178 531.60483577 -264.53328662 501.60121821 -314 454 C-315.18722656 452.87464844 -315.18722656 452.87464844 -316.3984375 451.7265625 C-320.88511936 447.381752 -324.83424858 442.69156427 -328.734375 437.81640625 C-330.15428156 436.05131551 -331.59884205 434.3054783 -333.078125 432.58984375 C-374.10454505 384.64971217 -395.28432403 319.63772083 -395.1875 257.0625 C-395.18689575 256.33734192 -395.1862915 255.61218384 -395.18566895 254.86505127 C-395.15852846 242.81566896 -394.69260207 230.94134255 -393 219 C-392.87641113 218.11296387 -392.75282227 217.22592773 -392.62548828 216.31201172 C-384.21494507 158.17222025 -357.7999835 104.19804119 -317 62 C-316.36868164 61.34676758 -315.73736328 60.69353516 -315.08691406 60.02050781 C-307.1052375 51.80691813 -299.0903568 43.98647509 -290 37 C-289.02160156 36.21625 -288.04320312 35.4325 -287.03515625 34.625 C-248.40194429 3.87092996 -201.58695492 -14.62437117 -153 -22 C-152.23848633 -22.11859375 -151.47697266 -22.2371875 -150.69238281 -22.359375 C-99.98928604 -29.86763437 -46.54475312 -20.5574173 0 0 Z " fill="#5E1F20" transform="translate(1073,370)"/>
<path d="M0 0 C3.44814284 0.0214868 6.89420339 0.00000961 10.34228516 -0.02539062 C75.08692308 -0.10676122 141.02205736 25.52314621 188.69775391 69.45507812 C190.68222211 71.27761924 192.70561283 73.02931996 194.76025391 74.77148438 C204.38977082 83.19243844 213.11435708 92.4130416 220.94775391 102.52148438 C221.96590891 103.81060545 222.98414364 105.09966356 224.00244141 106.38867188 C270.2807598 165.43294805 290.56986591 239.23964614 282.4309082 313.79858398 C278.96405959 341.9506253 271.24128437 368.58616529 259.94775391 394.52148438 C259.62581055 395.26994629 259.30386719 396.0184082 258.97216797 396.78955078 C248.17327171 421.67272179 232.85597564 444.2365542 214.94775391 464.52148438 C214.23619141 465.34390625 213.52462891 466.16632813 212.79150391 467.01367188 C202.75693419 478.43361129 191.99597337 489.23503441 179.94775391 498.52148438 C178.94486328 499.318125 177.94197266 500.11476563 176.90869141 500.93554688 C137.54002889 532.0393333 90.57941183 551.60641051 40.94775391 558.52148438 C40.12130371 558.63862793 39.29485352 558.75577148 38.44335938 558.87646484 C-17.87430612 566.47049187 -77.04433577 555.1610999 -127.05224609 528.52148438 C-127.7712207 528.14266113 -128.49019531 527.76383789 -129.23095703 527.37353516 C-148.21538548 517.3212597 -165.97625649 505.16775374 -181.79443359 490.59570312 C-183.82388072 488.73128025 -185.89258765 486.93373884 -187.98974609 485.14648438 C-195.92138929 478.22636652 -203.33563011 470.6225457 -210.05224609 462.52148438 C-210.45991211 462.03824707 -210.86757812 461.55500977 -211.28759766 461.05712891 C-224.85320422 444.91706306 -236.41043123 427.26308348 -246.05224609 408.52148438 C-246.670271 407.32434814 -246.670271 407.32434814 -247.30078125 406.10302734 C-280.66804807 340.68882735 -285.7383363 263.80748538 -263.92895508 193.91015625 C-251.64763412 156.42499991 -231.83570665 120.98865511 -204.64990234 92.29492188 C-202.60821981 90.11508038 -200.65310011 87.90677572 -198.70849609 85.64257812 C-195.17883174 81.59150235 -191.42024186 77.86878082 -187.48974609 74.20898438 C-186.79357178 73.56018311 -186.09739746 72.91138184 -185.38012695 72.24291992 C-178.89155993 66.2646482 -172.14126374 60.76728174 -165.05224609 55.52148438 C-164.41770508 55.04646484 -163.78316406 54.57144531 -163.12939453 54.08203125 C-133.88482449 32.30995802 -100.43249748 16.80359455 -65.17724609 7.70898438 C-64.16509033 7.44311523 -63.15293457 7.17724609 -62.11010742 6.90332031 C-41.65723997 1.9021578 -21.02037794 -0.15484625 0 0 Z " fill="#5E1F20" transform="translate(1497.05224609375,-0.521484375)"/>
<path d="M0 0 C1.2193222 -0.00073517 2.43864441 -0.00147034 3.69491577 -0.00222778 C23.12516611 0.02852107 41.52392413 1.04364623 60.5 5.4375 C61.6348584 5.69450684 62.7697168 5.95151367 63.93896484 6.21630859 C110.40685251 17.03468633 153.14739194 39.47297368 188.5 71.4375 C189.1398584 72.01564453 189.7797168 72.59378906 190.43896484 73.18945312 C197.5226197 79.62444685 204.39148599 86.05637891 210.5 93.4375 C211.38276541 94.43854218 212.26846854 95.43699741 213.15625 96.43359375 C260.57420306 150.00668695 285.13892116 223.18147797 281.19140625 294.44921875 C277.13748931 358.42660726 253.21160184 418.45229145 210.5 466.4375 C210.03948242 466.95973145 209.57896484 467.48196289 209.10449219 468.02001953 C197.12645565 481.5455954 183.97289544 493.63145768 169.5 504.4375 C168.95585449 504.84919434 168.41170898 505.26088867 167.85107422 505.68505859 C109.65722605 549.53449656 35.02554451 567.67070661 -36.92578125 558.41015625 C-87.90629355 551.17426085 -135.43985548 530.75416397 -175.5 498.4375 C-176.37785156 497.73536377 -176.37785156 497.73536377 -177.2734375 497.01904297 C-192.34163648 484.87160951 -206.8753905 470.93697933 -218.5 455.4375 C-219.42207937 454.25435202 -220.34534896 453.07213108 -221.26953125 451.890625 C-266.57169058 393.41460952 -286.85191167 318.33439385 -277.91064453 244.9519043 C-271.15471013 195.08075643 -252.33052591 146.69866192 -220.5 107.4375 C-219.76265625 106.50808594 -219.0253125 105.57867187 -218.265625 104.62109375 C-205.62939544 88.87061613 -191.49118024 73.8097427 -175.5 61.4375 C-174.49582031 60.63957031 -173.49164063 59.84164062 -172.45703125 59.01953125 C-158.96958785 48.36739836 -144.67328303 39.48490973 -129.5 31.4375 C-128.82855957 31.07914063 -128.15711914 30.72078125 -127.46533203 30.3515625 C-100.96354485 16.31227867 -72.0793537 7.17506978 -42.5 2.4375 C-41.38850586 2.25276123 -40.27701172 2.06802246 -39.13183594 1.87768555 C-26.13994208 -0.02912315 -13.1093286 -0.0034311 0 0 Z " fill="#5E1F20" transform="translate(418.5,-0.4375)"/>
</svg>
