<?xml version="1.0" encoding="UTF-8"?>
<svg version="1.1" xmlns="http://www.w3.org/2000/svg" width="2940" height="2940">
<path d="M0 0 C1.68481445 1.07226562 1.68481445 1.07226562 3.36328125 2.40625 C3.99492188 2.89834961 4.6265625 3.39044922 5.27734375 3.89746094 C6.28474609 4.69071777 6.28474609 4.69071777 7.3125 5.5 C18.5196194 14.09451082 30.3272683 20.82917275 42.99609375 27.015625 C47.68767902 29.31607444 52.28200756 31.7908356 56.86523438 34.29907227 C60.82404564 36.44528801 64.84963816 38.25787281 69 40 C70.04414062 40.48597656 71.08828125 40.97195313 72.1640625 41.47265625 C81.23059816 45.63753211 90.5128126 49.05434743 99.9375 52.3125 C101.18160645 52.74506104 102.42571289 53.17762207 103.70751953 53.62329102 C110.09817451 55.80491063 116.37074119 57.70561398 123 59 C123 59.66 123 60.32 123 61 C123.57685547 61.10304443 124.15371094 61.20608887 124.74804688 61.31225586 C130.62628304 62.41878154 136.31608658 63.89363137 142.05737305 65.5637207 C155.81718193 69.5557339 169.67809423 72.82260804 183.6875 75.8125 C184.56470703 76.0009549 185.44191406 76.18940979 186.34570312 76.38357544 C212.54527361 81.99115439 238.18595868 85.52901889 265 86 C265.81496948 86.0143811 266.62993896 86.02876221 267.46960449 86.0435791 C299.54893413 86.5767078 331.54360451 86.33943571 363.06201172 79.62304688 C366.35016119 78.92574278 369.64549877 78.2690034 372.94140625 77.609375 C407.50752445 70.5200296 442.93611639 61.55715945 475.625 48.125 C479.58312465 46.52002873 483.57990826 45.11981516 487.625 43.75 C495.78328362 40.85968717 503.35242344 37.02846795 511 33 C511.65709961 32.65501465 512.31419922 32.3100293 512.99121094 31.95458984 C516.1878313 30.27228319 519.37597945 28.5752887 522.5546875 26.859375 C524.63799986 25.73504769 526.72540952 24.61820552 528.8203125 23.515625 C548.63373124 12.98936315 548.63373124 12.98936315 566 -1 C570.39508261 -0.69822496 573.78809874 1.37441123 577.5 3.5625 C578.92347757 4.38324999 580.34805201 5.2020992 581.7734375 6.01953125 C582.58522461 6.48568848 583.39701172 6.9518457 584.23339844 7.43212891 C588.58782137 9.89984017 592.98329541 12.29239408 597.37353516 14.69555664 C608.58958981 20.83525481 619.72259422 27.07489921 630.68408203 33.66308594 C635.769676 36.7154564 640.9124693 39.62075535 646.12988281 42.44189453 C651.21792219 45.20404725 656.26280128 48.04354234 661.3125 50.875 C662.41480957 51.49286377 663.51711914 52.11072754 664.65283203 52.74731445 C672.45784732 57.12620074 680.24729152 61.52900318 688 66 C688.64372559 66.37060547 689.28745117 66.74121094 689.95068359 67.12304688 C701.65420372 73.86383746 713.30885274 80.68761809 724.95629883 87.5246582 C731.73305835 91.50209809 738.51655274 95.46738559 745.31030273 99.41577148 C757.46235979 106.4813434 769.52851533 113.68281356 781.56933594 120.93603516 C785.30596833 123.18548514 789.04737984 125.42693256 792.7890625 127.66796875 C794.12614609 128.46906423 795.46322292 129.27017098 796.80029297 130.07128906 C798.74282357 131.23515411 800.68544742 132.39886116 802.628479 133.56188965 C811.12373366 138.6475574 819.57779368 143.79392851 828 149 C828.88429688 149.54519287 829.76859375 150.09038574 830.6796875 150.65209961 C840.7695084 156.87304606 850.82936989 163.13796122 860.84106445 169.48388672 C866.64025833 173.15468819 872.47081992 176.77227815 878.3125 180.375 C900.20240031 193.89469904 921.84329395 207.82487543 943.2109375 222.15625 C944.17894287 222.80529297 945.14694824 223.45433594 946.14428711 224.12304688 C947.96253203 225.34485152 949.77857218 226.56994572 951.59204102 227.79882812 C952.39569092 228.33958984 953.19934082 228.88035156 954.02734375 229.4375 C954.72593506 229.91058594 955.42452637 230.38367187 956.14428711 230.87109375 C958.10683095 232.15943887 958.10683095 232.15943887 961 233 C962.01055839 233.98932893 963.0088048 234.99127205 964 236 C965.66364845 237.20494054 967.35333542 238.3742357 969.05859375 239.51953125 C970.58262817 240.54808228 970.58262817 240.54808228 972.13745117 241.59741211 C973.22646729 242.32839111 974.3154834 243.05937012 975.4375 243.8125 C977.71499996 245.34940985 979.99047997 246.88929426 982.265625 248.4296875 C983.12235054 249.00930489 983.12235054 249.00930489 983.99638367 249.60063171 C992.40385352 255.29582604 1000.7079015 261.13863364 1009 267 C1009.66596191 267.47018555 1010.33192383 267.94037109 1011.01806641 268.42480469 C1019.11498439 274.14880967 1027.08688374 280.0239991 1035 286 C1036.28206223 286.96028975 1037.56464207 287.91988874 1038.84765625 288.87890625 C1042.9044194 291.91134769 1046.95447257 294.95258706 1051 298 C1051.58458984 298.43989258 1052.16917969 298.87978516 1052.77148438 299.33300781 C1075.80034902 316.70495623 1094.32641254 334.6192672 1108.0703125 360.27587891 C1109.30158381 362.55929225 1110.58959927 364.80922312 1111.875 367.0625 C1115.48546963 373.60801127 1117.99547809 380.53912654 1120.62109375 387.5234375 C1121.63820081 390.08781506 1122.7075839 392.56095821 1123.859375 395.0625 C1126.56677823 401.11239988 1128.69754752 407.34775876 1130.8125 413.625 C1131.028992 414.26685242 1131.24548401 414.90870483 1131.46853638 415.57000732 C1136.09107999 429.3860525 1139.28947827 443.38394929 1142.26513672 457.63500977 C1142.96123176 460.82247754 1143.74482137 463.97179038 1144.56640625 467.12890625 C1146.09847899 473.14122954 1147.08634507 479.17987215 1148 485.3125 C1149.05745956 492.17866821 1150.13833799 499.01231283 1151.5625 505.8125 C1152.9773914 512.57769113 1154.01236759 519.37583929 1154.99829102 526.21411133 C1155.67412942 530.94004627 1155.67412942 530.94004627 1156.5625 535.62890625 C1157.15772218 538.8547979 1157.23885918 542.03539595 1157.375 545.3125 C1157.70857948 552.1818721 1158.4759865 558.9270283 1159.40625 565.73828125 C1161.10750614 578.79752904 1162.04862939 591.87757103 1162.88037109 605.01708984 C1163.12435544 608.86483492 1163.37967173 612.71170145 1163.63671875 616.55859375 C1164.12952861 624.03697069 1164.58011725 631.51718539 1165 639 C1165.05695038 640.00606293 1165.11390076 641.01212585 1165.1725769 642.04867554 C1166.35391166 663.96894665 1166.25600666 685.94019439 1166.29516602 707.88549805 C1166.30404907 712.33876112 1166.32502074 716.79171459 1166.35668945 721.24487305 C1166.63932716 761.93249402 1165.20087137 804.72412967 1142 840 C1141.23546797 841.25401065 1140.47543372 842.51076928 1139.71875 843.76953125 C1131.9429132 856.63467384 1122.66163007 867.66815367 1112.35449219 878.56640625 C1111.20063368 879.78764943 1110.05632137 881.01790055 1108.9140625 882.25 C1100.75994415 890.78257954 1091.03443336 897.45975369 1081.1875 903.875 C1080.49470947 904.32721924 1079.80191895 904.77943848 1079.08813477 905.24536133 C1066.97539784 913 1066.97539784 913 1063 913 C1063 913.66 1063 914.32 1063 915 C1033.85152838 927 1033.85152838 927 1026 927 C1026 927.66 1026 928.32 1026 929 C1024.76765625 929.19335938 1023.5353125 929.38671875 1022.265625 929.5859375 C1020.59374551 929.84892978 1018.92187077 930.11195225 1017.25 930.375 C1016.04150391 930.56449219 1016.04150391 930.56449219 1014.80859375 930.7578125 C1013.99003906 930.88671875 1013.17148438 931.015625 1012.328125 931.1484375 C1011.08289226 931.33918676 1011.08289226 931.33918676 1009.81250329 931.53378953 C1008.09619139 931.81829145 1006.38444735 932.13613434 1004.68576138 932.5118122 C993.71141408 934.78192489 982.50864007 934.27576719 971.36021805 934.25168228 C968.92595458 934.25376963 966.49169173 934.25673293 964.05743027 934.26049101 C958.75576821 934.26665886 953.45416013 934.26662818 948.15250126 934.26112393 C940.21566509 934.25292108 932.27886217 934.25629711 924.34202523 934.26188921 C910.81368909 934.27108228 897.28536798 934.27079257 883.75703049 934.26532745 C870.04886698 934.25982344 856.34071338 934.25866547 842.63254929 934.26280212 C841.33344055 934.26318964 841.33344055 934.26318964 840.00808718 934.26358499 C836.48065604 934.26465154 832.95322491 934.26574896 829.4257938 934.26688554 C796.57442104 934.2774632 763.72305493 934.27818202 730.87168121 934.27259064 C729.89830959 934.27242505 728.92493797 934.27225946 727.92207024 934.27208885 C726.94713987 934.27192299 725.97220951 934.27175713 724.9677358 934.27158624 C695.27238164 934.26654099 665.57703022 934.26523657 635.88167572 934.26763153 C633.89355628 934.26778649 631.90543683 934.2679408 629.91731739 934.26809447 C621.92795393 934.2687154 613.93859047 934.26935273 605.94922702 934.270014 C583.61490803 934.27184809 561.28058904 934.27298924 538.94626999 934.27358627 C537.42063853 934.27362721 537.42063853 934.27362721 535.86418624 934.27366897 C503.45148614 934.27448763 471.03878699 934.27223329 438.62608719 934.26788712 C437.57469812 934.26774662 436.52330905 934.26760612 435.44005971 934.26746136 C418.36595893 934.26517144 401.29185817 934.26273253 384.21775741 934.26028102 C316.50910125 934.25056972 248.800453 934.25101774 181.09179688 934.26074219 C164.03109361 934.26318457 146.97039033 934.26560667 129.90968704 934.26788712 C128.85919851 934.26802801 127.80870997 934.26816891 126.72638845 934.26831407 C94.35122636 934.27262663 61.97606493 934.27445495 29.60090256 934.27358627 C28.07630907 934.27354552 28.07630907 934.27354552 26.52091571 934.27350394 C4.20899459 934.27287898 -18.10292647 934.27161168 -40.41484752 934.26976527 C-48.39835117 934.26910698 -56.38185481 934.26848082 -64.36535846 934.26786385 C-66.35145476 934.26770907 -68.33755105 934.26755161 -70.32364734 934.26739145 C-100.0083969 934.26500434 -129.69314337 934.26703704 -159.37789254 934.27208885 C-160.8374532 934.27233723 -160.8374532 934.27233723 -162.32649994 934.27259064 C-163.7833692 934.27283868 -163.7833692 934.27283868 -165.26967017 934.27309174 C-198.03030963 934.27860857 -230.79094112 934.27657824 -263.55157945 934.26602915 C-267.07003463 934.26492445 -270.58848983 934.26385104 -274.10694504 934.26280212 C-274.97043292 934.26254171 -275.83392081 934.2622813 -276.723575 934.26201299 C-290.39276807 934.25806919 -304.06195124 934.26081366 -317.73114342 934.26634014 C-331.17409578 934.27163254 -344.61703143 934.2697702 -358.05998166 934.26031196 C-365.93933667 934.25497952 -373.81864586 934.25507768 -381.69799867 934.26327515 C-387.55148989 934.2687511 -393.40494223 934.26377156 -399.25843009 934.2547626 C-401.60890587 934.25275055 -403.95938752 934.25407452 -406.30985862 934.25917448 C-418.71324265 934.2841742 -430.73810307 933.98346704 -443 932 C-444.55286729 931.75204251 -444.55286729 931.75204251 -446.13710563 931.49907579 C-448.68341968 931.07872432 -451.21616366 930.61468914 -453.75 930.125 C-454.6383252 929.95427979 -455.52665039 929.78355957 -456.44189453 929.60766602 C-463.16663733 928.26676777 -469.61148996 926.51956089 -476 924 C-476.65742187 923.74347656 -477.31484375 923.48695313 -477.9921875 923.22265625 C-481.72042025 921.68993834 -485.27963365 919.84791152 -488.86328125 918.01171875 C-491.04114251 916.98051936 -493.2312896 916.18443939 -495.5 915.375 C-517.24546968 906.83690147 -535.76479248 889.54500943 -551.8203125 873.1171875 C-553.81434962 870.96682654 -553.81434962 870.96682654 -556 870 C-557.01425353 868.34196877 -558.01074722 866.67306806 -559 865 C-560.21106893 863.30786466 -561.46349334 861.65098085 -562.7175293 859.99047852 C-575.58645303 842.93385297 -585.89003617 824.52772021 -592 804 C-592.53753906 802.25589844 -592.53753906 802.25589844 -593.0859375 800.4765625 C-597.55444658 785.52553589 -600.16624669 770.71228037 -600.12939453 755.11694336 C-600.13114685 754.18338013 -600.13289917 753.24981689 -600.13470459 752.28796387 C-600.13907854 749.22190447 -600.13619529 746.15590368 -600.1328125 743.08984375 C-600.13348811 740.91874684 -600.13446027 738.74765 -600.13571167 736.57655334 C-600.13718375 732.01985964 -600.13505464 727.46318556 -600.13037109 722.90649414 C-600.12475136 717.16934926 -600.12799799 711.43225156 -600.13381577 705.69510841 C-600.2042722 623.64543863 -600.2042722 623.64543863 -597.49609375 610.56640625 C-596.79904052 606.96039072 -596.71331467 603.34790578 -596.5625 599.6875 C-595.57110368 579.22579527 -593.37999046 559.02184799 -590.5234375 538.73876953 C-590.0237841 535.16988325 -589.54096744 531.59912349 -589.0625 528.02734375 C-583.91913981 490.16357302 -577.99537685 450.90329498 -564.70996094 414.96875 C-563.60345231 411.90035745 -562.62219063 408.79284533 -561.625 405.6875 C-558.50908073 396.28980759 -554.82970511 387.12740047 -551 378 C-550.71930664 377.3296875 -550.43861328 376.659375 -550.14941406 375.96875 C-542.89714794 358.92548077 -533.03009408 343.06347559 -521 329 C-520.16726563 328.01515625 -519.33453125 327.0303125 -518.4765625 326.015625 C-512.8453254 319.58500093 -506.74149136 314.23153941 -500 309 C-498.91692185 308.14064072 -497.83492873 307.27991252 -496.75390625 306.41796875 C-487.96934394 299.43349063 -479.00858496 292.69168378 -470 286 C-468.89180908 285.17411377 -468.89180908 285.17411377 -467.76123047 284.33154297 C-456.48002737 275.92880972 -445.05152933 267.76542885 -433.49853516 259.74121094 C-431.03813083 258.0265731 -428.58611387 256.30063273 -426.13671875 254.5703125 C-414.30330432 246.21926898 -402.30218446 238.143431 -390.22851562 230.14453125 C-386.86005563 227.9070424 -383.49928498 225.65840442 -380.140625 223.40625 C-367.99428739 215.26604144 -355.79095219 207.24413238 -343.38818359 199.49804688 C-338.91033286 196.68920491 -334.45694348 193.84185154 -330 191 C-321.55935642 185.62333503 -313.1064416 180.26662061 -304.640625 174.9296875 C-301.52148649 172.96281709 -298.40739238 170.98828691 -295.296875 169.0078125 C-286.47838117 163.4005145 -277.59820552 157.92054311 -268.62133789 152.5703125 C-262.54178024 148.94178085 -256.51180689 145.23957973 -250.5 141.5 C-241.13782396 135.67991673 -231.70441426 129.98648376 -222.23828125 124.33740234 C-219.61975402 122.77279805 -217.00620877 121.20003873 -214.39306641 119.62646484 C-199.94791224 110.933841 -185.42283752 102.37537984 -170.82202148 93.94702148 C-165.1151772 90.65136825 -159.42984868 87.32085219 -153.75341797 83.97314453 C-146.5988942 79.75658762 -139.42123204 75.57995522 -132.24462891 71.40112305 C-124.32897035 66.78710587 -116.43804415 62.13230727 -108.56958008 57.43823242 C-102.45794122 53.80809965 -96.25487881 50.37632015 -90 47 C-79.10176722 41.06456284 -68.26745698 35.03233223 -57.51049805 28.84448242 C-48.50264506 23.6809505 -39.40545776 18.6815978 -30.29907227 13.69458008 C-23.64793683 10.04673672 -17.05458146 6.31936603 -10.52563477 2.45629883 C-9.27544556 1.73543091 -9.27544556 1.73543091 -8 1 C-6.96734009 0.37677856 -6.96734009 0.37677856 -5.91381836 -0.2590332 C-3.47261823 -1.20418468 -2.41351326 -0.95470396 0 0 Z " fill="#5E1F20" transform="translate(1187,1509)"/>
<path d="M0 0 C1.77203338 0.26286708 3.54256185 0.53587688 5.3125 0.8125 C6.29863281 0.96332031 7.28476563 1.11414063 8.30078125 1.26953125 C11.25632493 1.85314969 14.03737248 2.56077458 16.92578125 3.390625 C24.14861941 5.39938683 31.4963507 6.66119085 38.875 7.9375 C39.60878876 8.0662854 40.34257751 8.1950708 41.09860229 8.32775879 C52.90600861 10.3973135 64.73187766 12.18110723 76.62255859 13.70678711 C82.11947727 14.41863848 87.46394548 15.27992137 92.85668945 16.55371094 C96.72213362 17.35858985 100.63366971 17.65891933 104.5625 18 C106.32046375 18.16374879 108.0782756 18.32913607 109.8359375 18.49609375 C110.7031543 18.57843262 111.57037109 18.66077148 112.46386719 18.74560547 C117.42976446 19.24372493 122.37541196 19.89197083 127.32421875 20.53515625 C128.53722656 20.68855469 129.75023437 20.84195313 131 21 C131.67474365 21.08757568 132.3494873 21.17515137 133.04467773 21.26538086 C140.23931566 22.14206886 147.43744491 22.32368402 154.67773438 22.51757812 C160.03198541 22.701014 165.23254469 23.13101866 170.52856445 23.9543457 C177.62388072 24.98996919 184.68961549 25.64949538 191.84375 26.109375 C192.49095505 26.15124687 193.1381601 26.19311874 193.80497742 26.23625946 C210.60575872 27.29390049 227.41478097 27.30484475 244.24267578 27.26074219 C248.62191513 27.24934878 253.00091115 27.25612863 257.38014221 27.26763153 C281.68343922 27.32157144 305.82929449 26.76042162 330 24 C332.00693448 23.91075884 334.01402187 23.82232875 336.02197266 23.76000977 C351.56419335 23.25419785 367.00937833 21.27164251 382.44824219 19.51123047 C385.44220049 19.17125865 388.43719809 18.84793093 391.43457031 18.53955078 C402.86332364 17.35048434 414.16709077 15.63568563 425.5 13.75 C427.37977943 13.44029613 429.25958123 13.13072795 431.1394043 12.82128906 C443.04034369 10.85531391 454.93162546 8.83375803 466.8125 6.75 C467.83077881 6.57229065 467.83077881 6.57229065 468.86962891 6.39099121 C476.89696039 4.98576584 484.85289889 3.42105032 492.7878418 1.55957031 C496.24879591 0.9566588 499.49381768 0.90594856 503 1 C503.18062988 1.54712646 503.36125977 2.09425293 503.54736328 2.65795898 C504.40481962 5.25172378 505.26473823 7.84466433 506.125 10.4375 C506.60151001 11.8774231 506.60151001 11.8774231 507.08764648 13.34643555 C508.53479281 17.69725985 509.99116778 22.03815851 511.58984375 26.3359375 C519.66805166 48.06252557 524.13782184 71.13848419 528.54394531 93.8503418 C528.94336171 95.73302991 529.46240506 97.5895174 530 99.4375 C530.80782021 102.3153595 531.37936434 105.03189133 531.875 107.96875 C532.96622517 114.07910577 534.44729302 120.05536881 536 126.0625 C537.46641296 131.75755428 538.92391876 137.4281653 540.0234375 143.20703125 C545.17849875 169.76300642 559.91882602 197.13831415 582.0234375 213.03125 C593.26377543 220.46580422 605.60998383 225.15551289 619.1484375 225.09765625 C619.80582916 225.0962413 620.46322083 225.09482635 621.14053345 225.09336853 C623.21873731 225.08781762 625.29682927 225.07527465 627.375 225.0625 C628.79296718 225.05747864 630.21093607 225.05291685 631.62890625 225.04882812 C635.08597322 225.03786437 638.54297567 225.02063421 642 225 C642.33534575 236.31133507 641.58618742 247.15624592 640.1550293 258.38427734 C639.47473137 263.74136472 638.91345875 269.05308757 638.60546875 274.4453125 C637.94827393 284.27610605 636.30156972 293.96515579 634.75 303.6875 C634.591828 304.6864328 634.43365601 305.6853656 634.27069092 306.71456909 C633.19869474 313.47939077 632.10536042 320.24055749 631 327 C630.82470764 328.07936829 630.82470764 328.07936829 630.64587402 329.18054199 C623.58527135 372.57985732 610.74311515 414.55963851 593.3203125 454.8984375 C592.27453579 457.35508455 591.34023924 459.80279038 590.4375 462.3125 C567.64267291 519.34257683 519.91630177 571.55725293 468 603 C466.62967365 603.84418477 465.25985794 604.68919916 463.890625 605.53515625 C446.44693992 616.24277055 428.03462123 623.64685468 408.95117188 630.87695312 C406.67516205 631.74307202 404.40598507 632.62227962 402.140625 633.515625 C381.08039613 641.53347863 357.3337069 647.25596898 334.9140625 649.5703125 C331.21652701 649.74717873 331.21652701 649.74717873 329 651 C327.19684536 651.26752005 325.38654318 651.48759943 323.57421875 651.68359375 C322.47424561 651.80549072 321.37427246 651.9273877 320.2409668 652.05297852 C319.06832275 652.17987061 317.89567871 652.3067627 316.6875 652.4375 C306.41229158 653.56092133 306.41229158 653.56092133 296.1875 655.0625 C271.97932571 658.87304595 245.00778412 660.83287075 220.78369141 656.28295898 C210.46286814 654.37977349 199.96494714 653.81285271 189.51342773 653.00268555 C188.76147125 652.94289017 188.00951477 652.88309479 187.23477173 652.82148743 C185.80320011 652.7080559 184.37129304 652.59876495 182.9390564 652.49406433 C178.11201826 652.11201826 178.11201826 652.11201826 177 651 C175.06479554 650.65421288 173.11960359 650.36399881 171.171875 650.09765625 C169.38330078 649.84532227 169.38330078 649.84532227 167.55859375 649.58789062 C165.03539268 649.23981827 162.51195697 648.8934422 159.98828125 648.54882812 C158.79074219 648.37931641 157.59320312 648.20980469 156.359375 648.03515625 C155.26077148 647.8844165 154.16216797 647.73367676 153.03027344 647.57836914 C150.12653073 647.02415012 147.71330865 646.14458196 145 645 C142.94484961 644.67810898 140.88051949 644.41233844 138.8125 644.1875 C127.73128787 642.71778134 116.92818534 639.49698227 106.390625 635.8046875 C103.69202932 634.89633667 100.96798469 634.08438452 98.24121094 633.26538086 C91.76528552 631.30571861 85.63181134 629.11740962 79.515625 626.1875 C76.29356386 624.66652704 73.0023096 623.37277791 69.6796875 622.08984375 C41.24205186 610.52409981 14.4515938 592.89473146 -8 572 C-9.24668915 570.93361713 -10.49662796 569.87102009 -11.75 568.8125 C-20.76747098 560.95205686 -29.42157781 552.25708344 -37 543 C-37.4139502 542.49984375 -37.82790039 541.9996875 -38.25439453 541.484375 C-53.52152734 522.98775838 -67.96880489 503.08154601 -78.35546875 481.3984375 C-80.16114539 477.66699172 -82.09496988 474.02264744 -84.0625 470.375 C-85.06615698 468.49739087 -86.06811196 466.61888158 -87.06982422 464.74023438 C-87.91844243 463.1525833 -88.77334348 461.56829456 -89.62890625 459.984375 C-93.17355929 453.20973786 -95.78873375 446.26617046 -98.2421875 439.046875 C-99.5259672 435.29708637 -100.9023546 431.59173545 -102.3203125 427.890625 C-117.26468868 388.81848537 -126.98868859 347.32909134 -132.9375 305.9375 C-133.06562073 305.05068542 -133.19374146 304.16387085 -133.32574463 303.25018311 C-135.47038499 288.24768032 -137.07145966 273.22260021 -138.375 258.125 C-138.50296463 256.66113358 -138.50296463 256.66113358 -138.6335144 255.16769409 C-139.50169263 245.10497546 -140.30686224 235.11071738 -140 225 C-139.23558594 225.02094727 -138.47117187 225.04189453 -137.68359375 225.06347656 C-112.53868402 225.66108422 -94.64629242 223.22739749 -74 208 C-73.26523438 207.25878906 -72.53046875 206.51757812 -71.7734375 205.75390625 C-70 204 -70 204 -68 204 C-67.62875 203.15308594 -67.62875 203.15308594 -67.25 202.2890625 C-65.79476669 199.6241665 -64.01781217 197.64503869 -62 195.375 C-54.41351465 186.22947964 -47.1799955 174.85880312 -44.59765625 163.140625 C-44 161 -44 161 -42.5546875 158.203125 C-40.85849138 154.70844959 -39.91945077 151.26203228 -39.0625 147.5 C-37.85948331 142.41911241 -36.54624438 137.42792794 -35 132.4375 C-32.88074534 125.20710176 -31.65783369 117.86984719 -30.48242188 110.43334961 C-29.55256863 104.67115282 -28.28063853 99.14314565 -26.68481445 93.52954102 C-25.76746193 90.1410599 -25.19204764 86.77738199 -24.625 83.3125 C-23.55324507 77.17293798 -21.94395386 71.34382941 -19.97924805 65.43188477 C-18.09050694 59.61360476 -16.74008153 53.72385632 -15.4375 47.75 C-13.73444257 39.97036477 -11.74044777 32.48815332 -9 25 C-8.53763343 23.58464455 -8.07918333 22.16800261 -7.625 20.75 C-5.30273299 13.75725185 -2.61168926 6.88843607 0 0 Z " fill="#5E1F20" transform="translate(1219,888)"/>
<path d="M0 0 C0.9380825 0.00040031 1.87616501 0.00080063 2.84267426 0.00121307 C31.76549829 0.01569997 60.50727626 0.60718667 89.35449219 2.86962891 C92.62382948 3.1249086 95.89384958 3.36950529 99.1640625 3.61328125 C110.16932172 4.45216286 121.14029791 5.46017175 132.1015625 6.7578125 C133.60904053 6.93484207 133.60904053 6.93484207 135.14697266 7.115448 C143.15503472 8.0997443 151.00545811 9.60323025 158.890625 11.29296875 C162.73045085 12.099081 166.56767318 12.70342854 170.45288086 13.24194336 C182.52785083 14.92697212 194.11962244 18.13827266 205.83496094 21.46142578 C208.03389717 22.08293121 210.23862928 22.68393098 212.4453125 23.27734375 C230.15025 28.0918443 247.75198878 34.03744339 264.625 41.25 C265.68203125 41.69601562 266.7390625 42.14203125 267.828125 42.6015625 C269.09489161 43.14840467 270.36037552 43.69822204 271.625 44.25 C272.86286255 44.78911011 272.86286255 44.78911011 274.12573242 45.33911133 C280.85223968 48.32700851 287.29140313 51.67436833 293.6875 55.3125 C294.68120605 55.87686768 295.67491211 56.44123535 296.69873047 57.02270508 C310.76366439 65.10311215 323.9199364 74.18381481 336.625 84.25 C338.95685649 86.02930034 341.28946037 87.80756853 343.625 89.58203125 C346.11866764 91.6617111 348.34753875 93.93547947 350.625 96.25 C351.6284202 97.23359832 352.63371162 98.21529045 353.640625 99.1953125 C360.4567836 105.87424707 366.75814092 112.70538806 372.625 120.25 C373.42421875 121.24386719 374.2234375 122.23773437 375.046875 123.26171875 C390.95735912 143.21113747 405.17958334 167.70328205 412.60546875 192.17578125 C413.47994327 194.81260672 414.47331007 197.31053461 415.54296875 199.87109375 C417.80597975 205.4620928 419.30532755 211.15251629 420.75 217 C422.55029707 224.31901586 422.55029707 224.31901586 424.72265625 231.53125 C425.76364237 234.66772765 426.35846125 237.74601539 426.9375 241 C427.19164464 242.41165025 427.44693996 243.82309362 427.703125 245.234375 C427.84556641 246.02005859 427.98800781 246.80574219 428.13476562 247.61523438 C428.68763122 250.58661164 429.27145108 253.55098738 429.859375 256.515625 C433.48689487 274.83715114 435.78563374 292.73052742 436.84057617 311.37182617 C437.30426965 319.40238529 437.30426965 319.40238529 438.11962891 327.40112305 C439.98051468 342.38966623 440.02308123 357.35143815 440 372.4375 C439.99976082 373.13056999 439.99952164 373.82363998 439.99927521 374.5377121 C439.98891807 398.29999245 439.03490092 421.70842833 435.625 445.25 C435.50431152 446.08911926 435.38362305 446.92823853 435.25927734 447.79278564 C433.93957738 456.90256945 432.53571017 465.99952894 430.9921875 475.07421875 C430.66903564 476.97820435 430.66903564 476.97820435 430.33935547 478.9206543 C429.69659268 481.9163331 428.81219959 484.44019684 427.625 487.25 C427.18562279 488.81204697 426.777379 490.38313953 426.3984375 491.9609375 C426.17518799 492.86513428 425.95193848 493.76933105 425.72192383 494.70092773 C425.48368896 495.66587158 425.2454541 496.63081543 425 497.625 C421.92541899 509.76457943 417.94424423 521.50340275 413.625 533.25 C413.34889893 534.00466553 413.07279785 534.75933105 412.78833008 535.53686523 C408.4273733 547.33477428 403.48271371 555.25221583 392.0625 561.0625 C385.67147473 563.23445 377.95722021 563.41666612 371.44921875 561.6640625 C363.56083171 557.71080187 357.84834677 549.21281317 354.625 541.25 C353.93470703 539.62384766 353.93470703 539.62384766 353.23046875 537.96484375 C349.02004886 527.67375651 346.59552303 517.1678226 344.29003906 506.31689453 C343.09374424 500.8000606 341.7864583 495.30886139 340.5 489.8125 C338.9445793 483.12022505 337.41972075 476.43527993 336.125 469.6875 C334.00687362 458.7890009 331.28567187 448.02618677 328.625 437.25 C328.35139648 436.12883789 328.07779297 435.00767578 327.79589844 433.85253906 C323.9059906 417.97898533 319.33444369 402.56454175 313.625 387.25 C313.31530273 386.41049805 313.00560547 385.57099609 312.68652344 384.70605469 C309.18404699 375.25498724 305.35884026 366.16206547 300.625 357.25 C299.90264041 355.85208158 299.18136353 354.45360337 298.4609375 353.0546875 C294.83827191 346.0657742 291.24103086 339.21420533 286.62109375 332.81640625 C285.625 331.25 285.625 331.25 285.625 329.25 C276.06310835 331.22325536 266.51057313 333.22827419 257 335.4375 C255.90860718 335.68741699 255.90860718 335.68741699 254.79516602 335.94238281 C251.42807308 336.52058114 251.42807308 336.52058114 248.625 338.25 C246.18947643 338.68346706 243.75824852 339.06999998 241.3125 339.4375 C231.75735947 340.93876794 222.33651585 342.97389271 212.90112305 345.0925293 C206.00251191 346.61717412 199.13625752 347.81429827 192.13525391 348.76049805 C188.6467317 349.24696953 185.17939512 349.80816004 181.70703125 350.3984375 C162.0777707 353.72207414 142.42353043 356.18289748 122.625 358.25 C121.58633789 358.35940918 120.54767578 358.46881836 119.47753906 358.58154297 C105.83085686 360.00177508 92.1530874 361.02203019 78.46711731 361.97912598 C75.98151415 362.15436407 73.49613215 362.33278062 71.0110321 362.51501465 C51.2279391 363.95786164 31.58421038 364.54374919 11.75341797 364.44561768 C8.98308124 364.43473211 6.21279255 364.43519737 3.44243813 364.43562126 C-9.81654641 364.43514645 -23.06579638 364.3165583 -36.31640625 363.80078125 C-37.3100267 363.76228561 -38.30364716 363.72378998 -39.32737732 363.68412781 C-44.37081136 363.46236272 -49.34954904 363.06931197 -54.36174011 362.47117615 C-57.18405492 362.16111746 -59.99889563 362.05335927 -62.8359375 361.9609375 C-82.52217687 361.15949448 -101.99940971 359.20469216 -121.5625 356.875 C-122.80997009 356.7281073 -124.05744019 356.5812146 -125.3427124 356.42987061 C-140.94424059 354.58171757 -156.43348027 352.36671478 -171.91110229 349.67333984 C-175.17954389 349.11176557 -178.4529435 348.59573043 -181.73046875 348.08984375 C-191.13328948 346.63579931 -200.45840667 345.18331517 -209.69921875 342.89453125 C-212.31188239 342.26520351 -214.9146639 341.76902347 -217.5625 341.3125 C-228.44932847 339.39781069 -239.22272035 336.82886044 -249.9375 334.125 C-250.60015869 333.95790527 -251.26281738 333.79081055 -251.94555664 333.61865234 C-252.89869751 333.37816162 -252.89869751 333.37816162 -253.87109375 333.1328125 C-263.0084885 330.55426978 -263.0084885 330.55426978 -272.375 330.25 C-274.29596691 332.25217994 -274.29596691 332.25217994 -275.625 335.125 C-276.20507812 336.21425781 -276.78515625 337.30351563 -277.3828125 338.42578125 C-277.69637695 339.03373535 -278.00994141 339.64168945 -278.33300781 340.26806641 C-279.46829444 342.4274518 -280.6606527 344.54760065 -281.8671875 346.66796875 C-288.43167097 358.21877029 -293.95543208 369.7053749 -298.375 382.25 C-298.85023059 383.52231047 -299.32911113 384.79326666 -299.8125 386.0625 C-300.33439354 387.45793727 -300.85509416 388.85382094 -301.375 390.25 C-301.89513672 391.63445312 -301.89513672 391.63445312 -302.42578125 393.046875 C-308.70787618 410.15381754 -313.70893782 427.60320852 -317.72167969 445.37207031 C-318.45031732 448.58177901 -319.19675707 451.78706685 -319.9453125 454.9921875 C-320.48465281 457.30722696 -321.02371892 459.62233032 -321.5625 461.9375 C-321.81265869 463.01233643 -322.06281738 464.08717285 -322.32055664 465.19458008 C-323.6020677 470.74635105 -324.80728229 476.30259175 -325.90356445 481.89379883 C-326.66380889 485.6934462 -327.52078041 489.47057497 -328.375 493.25 C-329.44169572 497.98978846 -330.48909212 502.72242534 -331.375 507.5 C-332.37582608 512.62703888 -333.83488502 517.60521366 -335.32421875 522.609375 C-336.00822346 524.97923517 -336.63896235 527.36533389 -337.20703125 529.765625 C-340.36886204 542.64394949 -346.78711252 554.00367695 -358.08984375 561.3671875 C-364.00215803 563.65126105 -372.86752161 563.14838787 -378.921875 561.59765625 C-380.946451 560.65420384 -382.59595745 559.59836935 -384.375 558.25 C-385.38433594 557.55583984 -385.38433594 557.55583984 -386.4140625 556.84765625 C-401.35979456 545.40045697 -405.88627261 519.21548517 -410.63232422 501.88525391 C-411.36132483 499.29852392 -412.14137129 496.73352979 -412.94140625 494.16796875 C-416.63045399 482.18287188 -418.813013 470.30305034 -420.515625 457.8828125 C-420.97259332 454.61627597 -421.53104716 451.70922567 -422.44921875 448.52734375 C-423.57521895 444.54120801 -423.78732792 440.80807549 -423.9375 436.6875 C-423.99816238 435.22773073 -424.06190886 433.76808599 -424.12890625 432.30859375 C-424.16479858 431.35424438 -424.16479858 431.35424438 -424.20141602 430.38061523 C-424.35439795 428.12324552 -424.35439795 428.12324552 -424.85595703 425.4128418 C-427.35727294 410.17081565 -426.57601588 394.25945367 -426.5625 378.875 C-426.56189575 377.60822418 -426.5612915 376.34144836 -426.56066895 375.0362854 C-426.43472596 277.675445 -426.43472596 277.675445 -413.375 239.3125 C-412.48327779 236.58160075 -412.00213252 234.12673613 -411.5546875 231.30078125 C-410.4509566 225.1002006 -408.56997338 219.31172568 -406.5 213.375 C-405.77476175 211.25564589 -405.05079037 209.1358578 -404.328125 207.015625 C-403.98587891 206.01466797 -403.64363281 205.01371094 -403.29101562 203.98242188 C-402.19600453 200.71606682 -401.21141342 197.43291399 -400.25 194.125 C-398.17993128 187.25530293 -395.30613307 180.78642674 -392.375 174.25 C-391.93704102 173.23292969 -391.93704102 173.23292969 -391.49023438 172.1953125 C-379.99082769 145.68344209 -363.21965261 123.05516462 -343.375 102.25 C-342.82150879 101.66782715 -342.26801758 101.0856543 -341.69775391 100.48583984 C-318.49773957 76.23880973 -288.3279904 56.19934402 -257.375 43.25 C-255.95703351 42.60702554 -254.5401785 41.96158778 -253.125 41.3125 C-248.8658138 39.4106902 -244.5300025 37.81637118 -240.13671875 36.25390625 C-237.48110129 35.28856864 -234.86627383 34.25429073 -232.25 33.1875 C-225.81043015 30.58925583 -219.37775357 28.44058548 -212.6171875 26.8359375 C-209.95673384 26.140697 -207.36545914 25.28667504 -204.75 24.4375 C-197.47601174 22.15040677 -190.07520124 20.52667404 -182.62646484 18.9128418 C-181.7030127 18.71086182 -180.77956055 18.50888184 -179.828125 18.30078125 C-178.99442383 18.12200439 -178.16072266 17.94322754 -177.30175781 17.7590332 C-175.38197781 17.42465646 -175.38197781 17.42465646 -174.375 16.25 C-172.06037716 15.74660614 -169.75629576 15.29626511 -167.42578125 14.87890625 C-166.71150467 14.74827286 -165.99722809 14.61763947 -165.26130676 14.48304749 C-157.03914887 12.9889573 -148.80439605 11.5681377 -140.5625 10.1875 C-139.77673584 10.05549194 -138.99097168 9.92348389 -138.18139648 9.78747559 C-127.95652639 8.07744167 -117.77481151 6.53331763 -107.4375 5.671875 C-104.2682057 5.39099102 -101.18495289 4.87249805 -98.0546875 4.3046875 C-89.57987873 2.86810085 -81.0691534 2.21120319 -72.5 1.625 C-71.54744324 1.5592981 -70.59488647 1.49359619 -69.61346436 1.42590332 C-46.43030713 -0.09576205 -23.22228281 -0.02164216 0 0 Z " fill="#5E1F20" transform="translate(1463.375,496.75)"/>
<path d="M0 0 C8.86480664 0.44496141 17.65345682 0.98450469 26.45925903 2.13923645 C42.33109152 4.20937682 58.09441723 4.42822443 74.06469727 4.3225708 C76.81482772 4.30912811 79.56479663 4.31441934 82.31494522 4.3194294 C99.31629961 4.34288087 116.05763193 3.5279446 133 2 C142.24 1.34 151.48 0.68 161 0 C161 44.88 161 89.76 161 136 C158.69 136.33 156.38 136.66 154 137 C152.32352879 137.64161244 150.65635281 138.30810579 149 139 C141.3299205 140.93688876 133.53926867 142.36461008 125.70703125 143.4609375 C123.01721435 143.85208053 120.36935626 144.29487385 117.69921875 144.7890625 C93.28841009 149.0196455 65.67531228 149.32777912 41.33642578 144.46630859 C38.79116067 143.95831942 36.23942833 143.5024609 33.68359375 143.05078125 C25.15873344 141.51781873 16.68731754 139.77058426 8.25 137.8125 C7.52844727 137.64564697 6.80689453 137.47879395 6.06347656 137.30688477 C1.12592937 136.12592937 1.12592937 136.12592937 0 135 C-0.09629597 133.25373476 -0.12187539 131.50354095 -0.12025452 129.75462341 C-0.12162918 128.61733795 -0.12300385 127.48005249 -0.12442017 126.30830383 C-0.12082489 125.04954941 -0.11722961 123.79079498 -0.11352539 122.49389648 C-0.11367142 121.17701843 -0.11381744 119.86014038 -0.1139679 118.50335693 C-0.11425587 114.88161732 -0.10835924 111.25991054 -0.10139394 107.63817859 C-0.0951603 103.85718116 -0.09455659 100.07618305 -0.09336853 96.29518127 C-0.09025524 89.1305571 -0.08204189 81.9659481 -0.07201904 74.80133063 C-0.06085782 66.64668838 -0.05534743 58.49204543 -0.05032361 50.33739746 C-0.03985928 33.55825607 -0.02225989 16.77912997 0 0 Z " fill="#FDFDFD" transform="translate(1389,1655)"/>
<path d="M0 0 C1.08766914 0.17376663 1.08766914 0.17376663 2.1973114 0.3510437 C2.99585541 0.46997986 3.79439941 0.58891602 4.61714172 0.7114563 C5.41405426 0.84630432 6.2109668 0.98115234 7.0320282 1.12008667 C8.07186356 1.27522736 8.07186356 1.27522736 9.13270569 1.4335022 C11.22081539 1.74622933 13.30389212 2.08338551 15.38749695 2.42477417 C16.98221638 2.68029141 18.57702819 2.93523255 20.17192078 3.18966675 C21.40840866 3.38733139 21.40840866 3.38733139 22.6698761 3.58898926 C37.47468394 5.94703417 52.23209436 7.95184821 67.16752625 9.26998901 C68.3151947 9.37134155 69.46286316 9.47269409 70.64530945 9.57711792 C71.64344666 9.65937622 72.64158386 9.74163452 73.66996765 9.8263855 C76.0320282 10.12008667 76.0320282 10.12008667 78.0320282 11.12008667 C78.0320282 11.78008667 78.0320282 12.44008667 78.0320282 13.12008667 C79.0220282 13.61508667 79.0220282 13.61508667 80.0320282 14.12008667 C67.7411787 14.62984541 55.87237825 13.07526218 43.7195282 11.43258667 C42.7056604 11.29858459 41.6917926 11.16458252 40.64720154 11.02651978 C25.29615978 8.99413517 10.13299137 6.58136221 -4.9679718 3.12008667 C-2.54088051 0.15504586 -2.54088051 0.15504586 0 0 Z " fill="#5E1F20" transform="translate(1278.9679718017578,839.8799133300781)"/>
<path d="M0 0 C4.86071202 1.51399227 9.48251275 3.15977237 14.09375 5.3203125 C19.88346526 7.98011032 25.75369715 10.37004007 31.6875 12.6875 C32.66783203 13.07744141 33.64816406 13.46738281 34.65820312 13.86914062 C40.06055431 15.98593597 45.33409867 17.74315119 51 19 C51 19.99 51 20.98 51 22 C39.62156593 20.26701205 29.03544071 17.17544331 18.63671875 12.2265625 C15.99937679 10.99971009 13.33717422 9.92461543 10.625 8.875 C3.78571672 6.15668391 3.78571672 6.15668391 1 4 C0.37890625 1.90625 0.37890625 1.90625 0 0 Z " fill="#5E1F20" transform="translate(1280,1502)"/>
<path d="M0 0 C5.06115958 0.43630686 9.91559821 1.14721845 14.875 2.25 C26.51459433 4.83800715 38.27126842 6.86161949 50 9 C47.18250401 11.81749599 44.85773433 11.71469944 40.9765625 12.0390625 C36.53972558 11.98083629 32.49914231 10.92932004 28.21875 9.82421875 C25.33723996 9.08635635 22.49219276 8.50407949 19.5625 8 C13.00177527 6.85478474 6.5048591 5.4244217 0 4 C0 2.68 0 1.36 0 0 Z " fill="#5E1F20" transform="translate(1226,830)"/>
<path d="M0 0 C1.11568359 0.25523438 1.11568359 0.25523438 2.25390625 0.515625 C13.76706516 3.07108412 25.37433232 5.03334208 37 7 C37 7.66 37 8.32 37 9 C24.46835503 11.44735655 12.08148268 7.17223288 0 4 C0 2.68 0 1.36 0 0 Z " fill="#5E1F20" transform="translate(1354,1527)"/>
<path d="M0 0 C1.66611905 -0.042721 3.33382885 -0.04063832 5 0 C5.33 0.33 5.66 0.66 6 1 C8.66495769 1.50270793 11.32180532 1.9544912 14 2.375 C15.63421197 2.64002519 17.26832413 2.90566644 18.90234375 3.171875 C19.74265137 3.30787109 20.58295898 3.44386719 21.44873047 3.58398438 C25.49039554 4.24302718 29.52735023 4.92727708 33.5625 5.625 C34.29404297 5.74794434 35.02558594 5.87088867 35.77929688 5.99755859 C40.88477639 6.88477639 40.88477639 6.88477639 42 8 C44.0587768 8.27953219 46.11728432 8.44734351 48.1875 8.62109375 C48.785625 8.74613281 49.38375 8.87117187 50 9 C50.495 9.99 50.495 9.99 51 11 C43.94060193 11.30804646 37.47015893 10.1413006 30.5625 8.75 C29.42119629 8.52546143 28.27989258 8.30092285 27.10400391 8.06958008 C18.01659881 6.25939355 8.99022966 4.24129681 0 2 C0 1.34 0 0.68 0 0 Z " fill="#5E1F20" transform="translate(1228,828)"/>
<path d="M0 0 C1.09054687 0.09087891 1.09054687 0.09087891 2.203125 0.18359375 C3.71132812 0.30927734 3.71132812 0.30927734 5.25 0.4375 C10.359375 0.86328125 10.359375 0.86328125 15.46875 1.2890625 C17.09296875 1.42441406 17.09296875 1.42441406 18.75 1.5625 C21.375 1.78125 21.375 1.78125 24 2 C23.360625 2.309375 22.72125 2.61875 22.0625 2.9375 C20.06389179 3.8345163 20.06389179 3.8345163 19 5 C10.75735703 5.45208373 2.97790317 5.23941142 -5 3 C-5 2.67 -5 2.34 -5 2 C-3.35 2 -1.7 2 0 2 C0 1.34 0 0.68 0 0 Z " fill="#5E1F20" transform="translate(1404,1536)"/>
<path d="M0 0 C2.98313944 0.58826674 5.96048537 1.19462904 8.9375 1.8125 C9.78763672 1.97814453 10.63777344 2.14378906 11.51367188 2.31445312 C12.72700195 2.5706543 12.72700195 2.5706543 13.96484375 2.83203125 C14.7137085 2.98389893 15.46257324 3.1357666 16.23413086 3.29223633 C16.81686768 3.52579834 17.39960449 3.75936035 18 4 C18.33 4.99 18.66 5.98 19 7 C12.32508169 7.45510807 6.40625443 5.7672426 0 4 C0 2.68 0 1.36 0 0 Z " fill="#5E1F20" transform="translate(1354,1527)"/>
<path d="M0 0 C0.66 1.65 1.32 3.3 2 5 C-4.15234375 5.09765625 -4.15234375 5.09765625 -6 5 C-6.33 4.67 -6.66 4.34 -7 4 C-9.28684338 3.7180604 -11.57363273 3.55222995 -13.87109375 3.37890625 C-16 3 -16 3 -18 1 C-12.03325384 -0.32594359 -6.07416385 -0.0884587 0 0 Z " fill="#5E1F20" transform="translate(1403,1535)"/>
<path d="M0 0 C1.65 0 3.3 0 5 0 C5 0.66 5 1.32 5 2 C5.99 1.67 6.98 1.34 8 1 C10.41015625 1.8203125 10.41015625 1.8203125 13.0625 3.125 C13.94035156 3.54007813 14.81820312 3.95515625 15.72265625 4.3828125 C18.44108707 6.31322478 19.0618618 7.85167182 20 11 C15.08558588 9.56347895 10.99761642 7.45840385 6.625 4.875 C5.98433594 4.50246094 5.34367188 4.12992188 4.68359375 3.74609375 C3.11951523 2.83565998 1.55934466 1.91851809 0 1 C0 0.67 0 0.34 0 0 Z " fill="#5E1F20" transform="translate(674,2414)"/>
<path d="M0 0 C0.99 0.33 1.98 0.66 3 1 C3 1.99 3 2.98 3 4 C1.06532058 4.83986084 -0.87285129 5.67168027 -2.8125 6.5 C-4.43091797 7.19609375 -4.43091797 7.19609375 -6.08203125 7.90625 C-9 9 -9 9 -12 9 C-11.4375 7.1875 -11.4375 7.1875 -10 5 C-6.5625 3.375 -6.5625 3.375 -3 2 C-2.01 1.34 -1.02 0.68 0 0 Z " fill="#5E1F20" transform="translate(2241,2422)"/>
<path d="M0 0 C5.50808397 0.59015185 10.64878069 1.56663769 16 3 C16 3.66 16 4.32 16 5 C9.91891127 6.80789124 4.83137661 4.83657235 -1 3 C-0.67 2.01 -0.34 1.02 0 0 Z " fill="#5E1F20" transform="translate(1200,824)"/>
<path d="M0 0 C1.43836751 0.11458693 2.87570966 0.24209116 4.3125 0.375 C5.51326172 0.47941406 5.51326172 0.47941406 6.73828125 0.5859375 C9 1 9 1 12 3 C12 3.66 12 4.32 12 5 C8.04 4.67 4.08 4.34 0 4 C0 2.68 0 1.36 0 0 Z " fill="#5E1F20" transform="translate(1226,830)"/>
<path d="M0 0 C4.29 1.65 8.58 3.3 13 5 C11.68 5.99 10.36 6.98 9 8 C5.48029845 7.12007461 2.65927209 5.46228897 0 3 C0 2.01 0 1.02 0 0 Z " fill="#5E1F20" transform="translate(692,2420)"/>
<path d="M0 0 C1.51400391 0.01740234 1.51400391 0.01740234 3.05859375 0.03515625 C4.07050781 0.04417969 5.08242187 0.05320312 6.125 0.0625 C7.29869141 0.07990234 7.29869141 0.07990234 8.49609375 0.09765625 C6.46079788 2.13295212 5.26191993 2.73608345 2.62109375 3.72265625 C1.60402344 4.11324219 1.60402344 4.11324219 0.56640625 4.51171875 C-1.50390625 5.09765625 -1.50390625 5.09765625 -5.50390625 5.09765625 C-3.09571996 0.12073791 -3.09571996 0.12073791 0 0 Z " fill="#5E1F20" transform="translate(1629.50390625,1513.90234375)"/>
<path d="M0 0 C0.80824219 0.11085938 1.61648438 0.22171875 2.44921875 0.3359375 C3.37154297 0.47902344 3.37154297 0.47902344 4.3125 0.625 C3.3225 2.11 3.3225 2.11 2.3125 3.625 C-2.03336828 4.02007893 -4.00753497 4.07831002 -7.6875 1.625 C-4.33422361 -0.61051759 -3.78006343 -0.54783528 0 0 Z " fill="#5E1F20" transform="translate(1281.6875,840.375)"/>
<path d="M0 0 C0 4.35637821 -2.27897057 6.05610053 -5.109375 9.19140625 C-7.24427494 11.23367623 -9.12212703 12.30233382 -12 13 C-8.19524578 8.43969176 -4.25030379 4.14910608 0 0 Z " fill="#5E1F20" transform="translate(1126,593)"/>
<path d="M0 0 C1.8125 0.05078125 1.8125 0.05078125 4 0.3125 C4.721875 0.39113281 5.44375 0.46976563 6.1875 0.55078125 C7.0846875 0.77314453 7.0846875 0.77314453 8 1 C8.33 1.66 8.66 2.32 9 3 C3.51053913 4.12029814 0.16569441 3.79217969 -5 2 C-4.360625 1.855625 -3.72125 1.71125 -3.0625 1.5625 C-1.02454854 1.18992819 -1.02454854 1.18992819 0 0 Z " fill="#5E1F20" transform="translate(1330,1522)"/>
<path d="M0 0 C0.66 0.33 1.32 0.66 2 1 C1.67 1.99 1.34 2.98 1 4 C-0.84765625 4.73046875 -0.84765625 4.73046875 -3.0625 5.1875 C-3.79597656 5.34605469 -4.52945312 5.50460937 -5.28515625 5.66796875 C-6.13400391 5.83232422 -6.13400391 5.83232422 -7 6 C-7 5.01 -7 4.02 -7 3 C-4.69631264 1.93347808 -2.35981813 0.93578995 0 0 Z " fill="#5E1F20" transform="translate(1621,1517)"/>
<path d="M0 0 C1.258125 -0.020625 2.51625 -0.04125 3.8125 -0.0625 C4.52019531 -0.07410156 5.22789063 -0.08570313 5.95703125 -0.09765625 C8 0 8 0 11 1 C11 1.66 11 2.32 11 3 C9.741875 3.020625 8.48375 3.04125 7.1875 3.0625 C6.47980469 3.07410156 5.77210937 3.08570313 5.04296875 3.09765625 C3 3 3 3 0 2 C0 1.34 0 0.68 0 0 Z " fill="#5E1F20" transform="translate(1213,825)"/>
<path d="M0 0 C2.64 0.66 5.28 1.32 8 2 C7.01 2.495 7.01 2.495 6 3 C5.67 3.99 5.34 4.98 5 6 C3.0625 5.25 3.0625 5.25 1 4 C0.67 2.68 0.34 1.36 0 0 Z " fill="#5E1F20" transform="translate(1280,1502)"/>
<path d="M0 0 C2.97 0 5.94 0 9 0 C9.33 0.99 9.66 1.98 10 3 C6.7 2.34 3.4 1.68 0 1 C0 0.67 0 0.34 0 0 Z " fill="#5E1F20" transform="translate(1287,840)"/>
<path d="M0 0 C0 0.66 0 1.32 0 2 C-2.97 1.67 -5.94 1.34 -9 1 C-4.82091936 -1.08954032 -4.19589427 -1.16552619 0 0 Z " fill="#5E1F20" transform="translate(1238,833)"/>
<path d="M0 0 C2.625 -0.1875 2.625 -0.1875 5 0 C3.68 1.32 2.36 2.64 1 4 C0.01 3.67 -0.98 3.34 -2 3 C-1.34 2.01 -0.68 1.02 0 0 Z " fill="#5E1F20" transform="translate(1665,1499)"/>
<path d="M0 0 C1.65 0 3.3 0 5 0 C5 0.66 5 1.32 5 2 C5.66 2.33 6.32 2.66 7 3 C4.69 3 2.38 3 0 3 C0 2.01 0 1.02 0 0 Z " fill="#5E1F20" transform="translate(1352,851)"/>
</svg>
